<svg xmlns="http://www.w3.org/2000/svg" xmlns:xlink="http://www.w3.org/1999/xlink" width="90" zoomAndPan="magnify" viewBox="0 0 67.5 33.749999" height="45" preserveAspectRatio="xMidYMid meet" version="1.0"><defs><g/></defs><g fill="#000000" fill-opacity="1"><g transform="translate(16.953175, 21.872077)"><g><path d="M 8.96875 -8.875 L 5.703125 -8.875 L 5.703125 0 L 3.515625 0 L 3.515625 -8.875 L 0.296875 -8.875 L 0.296875 -10.65625 L 8.96875 -10.65625 Z M 8.96875 -8.875 "/></g></g><g transform="translate(26.227539, 21.872077)"><g><path d="M 4.453125 0.140625 C 3.296875 0.140625 2.351562 -0.210938 1.625 -0.921875 C 0.894531 -1.628906 0.53125 -2.578125 0.53125 -3.765625 L 0.53125 -3.96875 C 0.53125 -4.769531 0.679688 -5.484375 0.984375 -6.109375 C 1.296875 -6.734375 1.734375 -7.210938 2.296875 -7.546875 C 2.859375 -7.890625 3.5 -8.0625 4.21875 -8.0625 C 5.300781 -8.0625 6.15625 -7.71875 6.78125 -7.03125 C 7.40625 -6.351562 7.71875 -5.390625 7.71875 -4.140625 L 7.71875 -3.265625 L 2.671875 -3.265625 C 2.734375 -2.753906 2.9375 -2.34375 3.28125 -2.03125 C 3.625 -1.71875 4.0625 -1.5625 4.59375 -1.5625 C 5.40625 -1.5625 6.039062 -1.851562 6.5 -2.4375 L 7.546875 -1.28125 C 7.222656 -0.832031 6.789062 -0.484375 6.25 -0.234375 C 5.707031 0.015625 5.109375 0.140625 4.453125 0.140625 Z M 4.21875 -6.34375 C 3.789062 -6.34375 3.445312 -6.203125 3.1875 -5.921875 C 2.925781 -5.640625 2.757812 -5.238281 2.6875 -4.71875 L 5.640625 -4.71875 L 5.640625 -4.875 C 5.628906 -5.34375 5.5 -5.703125 5.25 -5.953125 C 5.007812 -6.210938 4.664062 -6.34375 4.21875 -6.34375 Z M 4.21875 -6.34375 "/></g></g><g transform="translate(34.330713, 21.872077)"><g><path d="M 4.109375 -1.5625 C 4.492188 -1.5625 4.804688 -1.664062 5.046875 -1.875 C 5.296875 -2.09375 5.425781 -2.378906 5.4375 -2.734375 L 7.421875 -2.734375 C 7.410156 -2.203125 7.257812 -1.710938 6.96875 -1.265625 C 6.6875 -0.816406 6.296875 -0.46875 5.796875 -0.21875 C 5.296875 0.0195312 4.742188 0.140625 4.140625 0.140625 C 3.003906 0.140625 2.109375 -0.21875 1.453125 -0.9375 C 0.804688 -1.65625 0.484375 -2.648438 0.484375 -3.921875 L 0.484375 -4.046875 C 0.484375 -5.265625 0.804688 -6.238281 1.453125 -6.96875 C 2.097656 -7.695312 2.988281 -8.0625 4.125 -8.0625 C 5.113281 -8.0625 5.90625 -7.78125 6.5 -7.21875 C 7.101562 -6.65625 7.410156 -5.90625 7.421875 -4.96875 L 5.4375 -4.96875 C 5.425781 -5.375 5.296875 -5.703125 5.046875 -5.953125 C 4.804688 -6.210938 4.488281 -6.34375 4.09375 -6.34375 C 3.59375 -6.34375 3.21875 -6.164062 2.96875 -5.8125 C 2.71875 -5.457031 2.59375 -4.875 2.59375 -4.0625 L 2.59375 -3.84375 C 2.59375 -3.03125 2.71875 -2.445312 2.96875 -2.09375 C 3.21875 -1.738281 3.597656 -1.5625 4.109375 -1.5625 Z M 4.109375 -1.5625 "/></g></g><g transform="translate(42.148409, 21.872077)"><g><path d="M 2.875 -7.046875 C 3.4375 -7.722656 4.140625 -8.0625 4.984375 -8.0625 C 6.703125 -8.0625 7.578125 -7.066406 7.609375 -5.078125 L 7.609375 0 L 5.484375 0 L 5.484375 -5.015625 C 5.484375 -5.460938 5.382812 -5.796875 5.1875 -6.015625 C 5 -6.234375 4.675781 -6.34375 4.21875 -6.34375 C 3.601562 -6.34375 3.15625 -6.101562 2.875 -5.625 L 2.875 0 L 0.765625 0 L 0.765625 -11.234375 L 2.875 -11.234375 Z M 2.875 -7.046875 "/></g></g></g></svg>