<svg xmlns="http://www.w3.org/2000/svg" xmlns:xlink="http://www.w3.org/1999/xlink" width="90" zoomAndPan="magnify" viewBox="0 0 67.5 33.749999" height="45" preserveAspectRatio="xMidYMid meet" version="1.0"><defs><g/></defs><path stroke-linecap="butt" transform="matrix(0.75, 0, 0, 0.75, 2.911168, 9.6811)" fill="none" stroke-linejoin="miter" d="M 5.540318 10.680409 L 7.66011 3.649159 L 9.800735 3.649159 L 6.545527 12.998118 L 4.53511 12.998118 L 1.295526 3.649159 L 3.430943 3.649159 Z M 19.628861 8.539784 C 19.628861 9.456451 19.467403 10.263743 19.144486 10.956451 C 18.816361 11.649159 18.352819 12.185618 17.748653 12.565826 C 17.139277 12.940826 16.446569 13.128326 15.665319 13.128326 C 14.889277 13.128326 14.196569 12.940826 13.587194 12.571034 C 12.983027 12.196034 12.509069 11.664784 12.175735 10.972076 C 11.842402 10.284576 11.675735 9.487701 11.670527 8.586659 L 11.670527 8.128326 C 11.670527 7.206451 11.837194 6.393951 12.165319 5.696034 C 12.498652 4.998117 12.967402 4.461659 13.571569 4.086659 C 14.180944 3.711659 14.873652 3.524159 15.649694 3.524159 C 16.430944 3.524159 17.123652 3.711659 17.727819 4.086659 C 18.331986 4.461659 18.800736 4.998117 19.134069 5.696034 C 19.467403 6.393951 19.628861 7.206451 19.628861 8.117909 Z M 17.680944 8.112701 C 17.680944 7.133534 17.503861 6.388742 17.154902 5.878325 C 16.800736 5.367909 16.300736 5.1127 15.649694 5.1127 C 15.003861 5.1127 14.503861 5.367909 14.154902 5.867909 C 13.800736 6.373117 13.623652 7.107492 13.623652 8.081451 L 13.623652 8.539784 C 13.623652 9.492909 13.795527 10.232493 14.149694 10.758534 C 14.498652 11.284576 15.003861 11.550201 15.665319 11.550201 C 16.311152 11.550201 16.805944 11.294993 17.154902 10.789784 C 17.498653 10.279368 17.675736 9.539784 17.680944 8.571034 Z M 24.22782 11.451243 L 28.316362 11.451243 L 28.316362 12.998118 L 22.300736 12.998118 L 22.300736 3.649159 L 24.22782 3.649159 Z M 37.727821 5.211659 L 34.863237 5.211659 L 34.863237 12.998118 L 32.941362 12.998118 L 32.941362 5.211659 L 30.113237 5.211659 L 30.113237 3.649159 L 37.727821 3.649159 Z M 42.144488 12.998118 L 40.217404 12.998118 L 40.217404 3.649159 L 42.144488 3.649159 Z M 47.722613 3.649159 L 50.123655 10.430409 L 52.509072 3.649159 L 55.040322 3.649159 L 55.040322 12.998118 L 53.108031 12.998118 L 53.108031 10.446034 L 53.300739 6.034576 L 50.774697 12.998118 L 49.45178 12.998118 L 46.936155 6.039784 L 47.128863 10.446034 L 47.128863 12.998118 L 45.20178 12.998118 L 45.20178 3.649159 Z M 63.26949 11.076243 L 59.889281 11.076243 L 59.248656 12.998118 L 57.201781 12.998118 L 60.680948 3.649159 L 62.467406 3.649159 L 65.967407 12.998118 L 63.915323 12.998118 Z M 60.410115 9.513742 L 62.748656 9.513742 L 61.571573 6.013742 Z M 71.451782 6.873117 L 73.206991 3.649159 L 75.420533 3.649159 L 72.696574 8.284576 L 75.493449 12.998118 L 73.248657 12.998118 L 71.451782 9.727284 L 69.654907 12.998118 L 67.415324 12.998118 L 70.20699 8.284576 L 67.483032 3.649159 L 69.701782 3.649159 Z M 71.451782 6.873117 " stroke="#000000" stroke-width="0.986422" stroke-opacity="1" stroke-miterlimit="4"/><g fill="#000000" fill-opacity="1"><g transform="translate(3.848668, 19.431099)"><g><path d="M 3.21875 -1.734375 L 4.796875 -7.015625 L 6.40625 -7.015625 L 3.96875 0 L 2.46875 0 L 0.03125 -7.015625 L 1.640625 -7.015625 Z M 3.21875 -1.734375 "/></g></g></g><g fill="#000000" fill-opacity="1"><g transform="translate(11.249093, 19.431099)"><g><path d="M 6.390625 -3.34375 C 6.390625 -2.65625 6.265625 -2.050781 6.015625 -1.53125 C 5.773438 -1.007812 5.425781 -0.609375 4.96875 -0.328125 C 4.519531 -0.046875 4 0.09375 3.40625 0.09375 C 2.820312 0.09375 2.300781 -0.0390625 1.84375 -0.3125 C 1.394531 -0.59375 1.046875 -0.992188 0.796875 -1.515625 C 0.546875 -2.035156 0.414062 -2.632812 0.40625 -3.3125 L 0.40625 -3.65625 C 0.40625 -4.34375 0.53125 -4.945312 0.78125 -5.46875 C 1.03125 -6 1.378906 -6.40625 1.828125 -6.6875 C 2.285156 -6.96875 2.804688 -7.109375 3.390625 -7.109375 C 3.984375 -7.109375 4.503906 -6.96875 4.953125 -6.6875 C 5.410156 -6.40625 5.765625 -6 6.015625 -5.46875 C 6.265625 -4.945312 6.390625 -4.34375 6.390625 -3.65625 Z M 4.921875 -3.65625 C 4.921875 -4.394531 4.785156 -4.953125 4.515625 -5.328125 C 4.253906 -5.710938 3.882812 -5.90625 3.40625 -5.90625 C 2.914062 -5.90625 2.535156 -5.71875 2.265625 -5.34375 C 2.003906 -4.96875 1.875 -4.414062 1.875 -3.6875 L 1.875 -3.34375 C 1.875 -2.625 2.003906 -2.066406 2.265625 -1.671875 C 2.535156 -1.285156 2.914062 -1.09375 3.40625 -1.09375 C 3.894531 -1.09375 4.269531 -1.28125 4.53125 -1.65625 C 4.789062 -2.039062 4.921875 -2.597656 4.921875 -3.328125 Z M 4.921875 -3.65625 "/></g></g></g><g fill="#000000" fill-opacity="1"><g transform="translate(19.01043, 19.431099)"><g><path d="M 2.0625 -1.15625 L 5.140625 -1.15625 L 5.140625 0 L 0.625 0 L 0.625 -7.015625 L 2.0625 -7.015625 Z M 2.0625 -1.15625 "/></g></g></g><g fill="#000000" fill-opacity="1"><g transform="translate(25.304041, 19.431099)"><g><path d="M 5.90625 -5.84375 L 3.75 -5.84375 L 3.75 0 L 2.3125 0 L 2.3125 -5.84375 L 0.1875 -5.84375 L 0.1875 -7.015625 L 5.90625 -7.015625 Z M 5.90625 -5.84375 "/></g></g></g><g fill="#000000" fill-opacity="1"><g transform="translate(32.357984, 19.431099)"><g><path d="M 2.15625 0 L 0.71875 0 L 0.71875 -7.015625 L 2.15625 -7.015625 Z M 2.15625 0 "/></g></g></g><g fill="#000000" fill-opacity="1"><g transform="translate(36.187726, 19.431099)"><g><path d="M 2.515625 -7.015625 L 4.3125 -1.921875 L 6.109375 -7.015625 L 8 -7.015625 L 8 0 L 6.546875 0 L 6.546875 -1.921875 L 6.703125 -5.21875 L 4.796875 0 L 3.8125 0 L 1.921875 -5.21875 L 2.0625 -1.921875 L 2.0625 0 L 0.625 0 L 0.625 -7.015625 Z M 2.515625 -7.015625 "/></g></g></g><g fill="#000000" fill-opacity="1"><g transform="translate(45.777714, 19.431099)"><g><path d="M 4.578125 -1.4375 L 2.046875 -1.4375 L 1.5625 0 L 0.03125 0 L 2.640625 -7.015625 L 3.984375 -7.015625 L 6.609375 0 L 5.0625 0 Z M 2.4375 -2.609375 L 4.1875 -2.609375 L 3.3125 -5.234375 Z M 2.4375 -2.609375 "/></g></g></g><g fill="#000000" fill-opacity="1"><g transform="translate(53.365813, 19.431099)"><g><path d="M 3.140625 -4.59375 L 4.453125 -7.015625 L 6.109375 -7.015625 L 4.0625 -3.53125 L 6.15625 0 L 4.484375 0 L 3.140625 -2.453125 L 1.78125 0 L 0.109375 0 L 2.203125 -3.53125 L 0.15625 -7.015625 L 1.8125 -7.015625 Z M 3.140625 -4.59375 "/></g></g></g><g fill="#000000" fill-opacity="1"><g transform="translate(58.841471, 17.768712)"><g><path d="M 0.375 -2.484375 L 1.1875 -2.484375 C 1.53125 -2.484375 1.785156 -2.414062 1.953125 -2.28125 C 2.128906 -2.144531 2.21875 -1.941406 2.21875 -1.671875 C 2.21875 -1.410156 2.132812 -1.203125 1.96875 -1.046875 C 1.800781 -0.898438 1.554688 -0.828125 1.234375 -0.828125 L 0.84375 -0.828125 L 0.84375 0 L 0.375 0 Z M 1.1875 -1.234375 C 1.375 -1.234375 1.507812 -1.265625 1.59375 -1.328125 C 1.675781 -1.398438 1.71875 -1.507812 1.71875 -1.65625 C 1.71875 -1.8125 1.675781 -1.921875 1.59375 -1.984375 C 1.507812 -2.046875 1.375 -2.078125 1.1875 -2.078125 L 0.84375 -2.078125 L 0.84375 -1.234375 Z M 1.1875 -1.234375 "/></g></g></g><g fill="#000000" fill-opacity="1"><g transform="translate(61.200899, 17.768712)"><g><path d="M 1.796875 0 L 1.28125 -0.953125 L 0.84375 -0.953125 L 0.84375 0 L 0.375 0 L 0.375 -2.484375 L 1.265625 -2.484375 C 1.585938 -2.484375 1.828125 -2.421875 1.984375 -2.296875 C 2.148438 -2.171875 2.234375 -1.984375 2.234375 -1.734375 C 2.234375 -1.554688 2.191406 -1.40625 2.109375 -1.28125 C 2.035156 -1.164062 1.921875 -1.078125 1.765625 -1.015625 L 2.3125 0 Z M 0.84375 -1.359375 L 1.265625 -1.359375 C 1.421875 -1.359375 1.535156 -1.382812 1.609375 -1.4375 C 1.691406 -1.5 1.734375 -1.59375 1.734375 -1.71875 C 1.734375 -1.851562 1.695312 -1.945312 1.625 -2 C 1.550781 -2.050781 1.429688 -2.078125 1.265625 -2.078125 L 0.84375 -2.078125 Z M 0.84375 -1.359375 "/></g></g></g><g fill="#000000" fill-opacity="1"><g transform="translate(63.703319, 17.768712)"><g><path d="M 1.5 0.046875 C 1.25 0.046875 1.03125 -0.00390625 0.84375 -0.109375 C 0.65625 -0.210938 0.515625 -0.363281 0.421875 -0.5625 C 0.328125 -0.757812 0.28125 -0.988281 0.28125 -1.25 C 0.28125 -1.507812 0.328125 -1.734375 0.421875 -1.921875 C 0.515625 -2.117188 0.65625 -2.269531 0.84375 -2.375 C 1.03125 -2.476562 1.25 -2.53125 1.5 -2.53125 C 1.757812 -2.53125 1.976562 -2.476562 2.15625 -2.375 C 2.34375 -2.269531 2.484375 -2.117188 2.578125 -1.921875 C 2.671875 -1.734375 2.71875 -1.507812 2.71875 -1.25 C 2.71875 -0.988281 2.671875 -0.757812 2.578125 -0.5625 C 2.484375 -0.363281 2.34375 -0.210938 2.15625 -0.109375 C 1.976562 -0.00390625 1.757812 0.046875 1.5 0.046875 Z M 1.5 -0.390625 C 1.726562 -0.390625 1.90625 -0.460938 2.03125 -0.609375 C 2.15625 -0.753906 2.21875 -0.96875 2.21875 -1.25 C 2.21875 -1.519531 2.15625 -1.726562 2.03125 -1.875 C 1.90625 -2.019531 1.726562 -2.09375 1.5 -2.09375 C 1.28125 -2.09375 1.101562 -2.019531 0.96875 -1.875 C 0.84375 -1.726562 0.78125 -1.519531 0.78125 -1.25 C 0.78125 -0.96875 0.84375 -0.753906 0.96875 -0.609375 C 1.101562 -0.460938 1.28125 -0.390625 1.5 -0.390625 Z M 1.5 -0.390625 "/></g></g></g></svg>