<svg xmlns="http://www.w3.org/2000/svg" xmlns:xlink="http://www.w3.org/1999/xlink" width="70" zoomAndPan="magnify" viewBox="0 0 52.5 52.499999" height="70" preserveAspectRatio="xMidYMid meet" version="1.0"><defs><clipPath id="d918b49732"><path d="M 8 8 L 44.625 8 L 44.625 44.625 L 8 44.625 Z M 8 8 " clip-rule="nonzero"/></clipPath></defs><g clip-path="url(#d918b49732)"><path fill="#bf001d" d="M 13.019531 8.148438 L 9.871094 8.171875 C 9.628906 8.171875 9.394531 8.214844 9.171875 8.308594 C 8.949219 8.398438 8.75 8.53125 8.578125 8.703125 C 8.40625 8.875 8.277344 9.070312 8.183594 9.296875 C 8.09375 9.519531 8.046875 9.753906 8.050781 9.996094 C 8.050781 10.234375 8.097656 10.46875 8.195312 10.691406 C 8.289062 10.914062 8.421875 11.109375 8.597656 11.277344 C 8.769531 11.449219 8.96875 11.578125 9.195312 11.664062 C 9.417969 11.753906 9.652344 11.796875 9.894531 11.792969 L 11.832031 11.777344 L 17.792969 26.082031 L 15.625 29.550781 C 14.109375 31.972656 15.953125 35.300781 18.8125 35.300781 L 38.832031 35.300781 C 39.074219 35.304688 39.308594 35.261719 39.53125 35.171875 C 39.757812 35.082031 39.957031 34.949219 40.128906 34.78125 C 40.300781 34.609375 40.433594 34.414062 40.527344 34.191406 C 40.621094 33.964844 40.667969 33.734375 40.667969 33.492188 C 40.667969 33.25 40.621094 33.015625 40.527344 32.792969 C 40.433594 32.570312 40.300781 32.371094 40.128906 32.203125 C 39.957031 32.03125 39.757812 31.902344 39.53125 31.8125 C 39.308594 31.722656 39.074219 31.675781 38.832031 31.679688 L 18.8125 31.679688 C 18.609375 31.679688 18.585938 31.640625 18.695312 31.46875 C 18.695312 31.46875 18.699219 31.46875 18.699219 31.46875 L 20.828125 28.058594 L 34.34375 28.058594 C 35.660156 28.058594 36.871094 27.347656 37.507812 26.195312 L 44.03125 14.453125 C 44.703125 13.25 43.828125 11.765625 42.449219 11.765625 L 15.75 11.765625 L 14.707031 9.261719 C 14.566406 8.921875 14.339844 8.648438 14.035156 8.445312 C 13.726562 8.242188 13.386719 8.144531 13.019531 8.148438 Z M 18.917969 37.113281 C 18.4375 37.113281 17.976562 37.203125 17.53125 37.386719 C 17.089844 37.570312 16.699219 37.832031 16.359375 38.171875 C 16.019531 38.511719 15.757812 38.902344 15.574219 39.347656 C 15.390625 39.789062 15.296875 40.253906 15.296875 40.734375 C 15.296875 41.210938 15.390625 41.675781 15.574219 42.117188 C 15.757812 42.5625 16.019531 42.953125 16.359375 43.292969 C 16.699219 43.632812 17.089844 43.894531 17.53125 44.078125 C 17.976562 44.261719 18.4375 44.351562 18.917969 44.351562 C 19.398438 44.351562 19.859375 44.261719 20.304688 44.078125 C 20.746094 43.894531 21.140625 43.632812 21.476562 43.292969 C 21.816406 42.953125 22.078125 42.5625 22.261719 42.117188 C 22.445312 41.675781 22.539062 41.210938 22.539062 40.734375 C 22.539062 40.253906 22.445312 39.789062 22.261719 39.347656 C 22.078125 38.902344 21.816406 38.511719 21.476562 38.171875 C 21.140625 37.832031 20.746094 37.570312 20.304688 37.386719 C 19.859375 37.203125 19.398438 37.113281 18.917969 37.113281 Z M 37.023438 37.113281 C 36.542969 37.113281 36.078125 37.203125 35.636719 37.386719 C 35.191406 37.570312 34.800781 37.832031 34.460938 38.171875 C 34.121094 38.511719 33.859375 38.902344 33.675781 39.347656 C 33.492188 39.789062 33.402344 40.253906 33.402344 40.734375 C 33.402344 41.210938 33.492188 41.675781 33.675781 42.117188 C 33.859375 42.5625 34.121094 42.953125 34.460938 43.292969 C 34.800781 43.632812 35.191406 43.894531 35.636719 44.078125 C 36.078125 44.261719 36.542969 44.351562 37.023438 44.351562 C 37.5 44.351562 37.964844 44.261719 38.40625 44.078125 C 38.851562 43.894531 39.242188 43.632812 39.582031 43.292969 C 39.921875 42.953125 40.183594 42.5625 40.367188 42.117188 C 40.550781 41.675781 40.640625 41.210938 40.640625 40.734375 C 40.640625 40.253906 40.550781 39.789062 40.367188 39.347656 C 40.183594 38.902344 39.921875 38.511719 39.582031 38.171875 C 39.242188 37.832031 38.851562 37.570312 38.40625 37.386719 C 37.964844 37.203125 37.5 37.113281 37.023438 37.113281 Z M 37.023438 37.113281 " fill-opacity="1" fill-rule="nonzero"/></g></svg>