<svg xmlns="http://www.w3.org/2000/svg" xmlns:xlink="http://www.w3.org/1999/xlink" width="70" zoomAndPan="magnify" viewBox="0 0 52.5 52.499999" height="70" preserveAspectRatio="xMidYMid meet" version="1.0"><defs><clipPath id="137bd9da40"><path d="M 14 10.792969 L 40.46875 10.792969 L 40.46875 42.292969 L 14 42.292969 Z M 14 10.792969 " clip-rule="nonzero"/></clipPath><clipPath id="927ad22c3f"><path d="M 11.96875 31 L 25 31 L 25 38 L 11.96875 38 Z M 11.96875 31 " clip-rule="nonzero"/></clipPath></defs><g clip-path="url(#137bd9da40)"><path fill="#ffffff" d="M 31.976562 42.285156 C 31.828125 42.285156 31.683594 42.257812 31.546875 42.199219 C 31.410156 42.140625 31.289062 42.0625 31.183594 41.953125 C 31.078125 41.847656 30.996094 41.726562 30.941406 41.589844 C 30.882812 41.449219 30.855469 41.304688 30.855469 41.15625 L 30.855469 35.3125 C 30.855469 35.269531 30.855469 35.230469 30.859375 35.1875 C 30.949219 34.417969 30.886719 33.664062 30.675781 32.921875 C 30.464844 32.175781 30.117188 31.5 29.640625 30.894531 C 29.507812 30.726562 29.429688 30.535156 29.40625 30.316406 C 29.382812 30.101562 29.417969 29.898438 29.511719 29.703125 C 29.605469 29.507812 29.746094 29.355469 29.929688 29.238281 C 30.109375 29.125 30.308594 29.066406 30.523438 29.066406 C 34.207031 29.066406 38.117188 26.648438 38.117188 22.160156 C 38.117188 22.136719 38.117188 22.113281 38.117188 22.089844 C 38.21875 20.480469 37.804688 19.015625 36.875 17.703125 C 36.675781 17.421875 36.617188 17.113281 36.695312 16.78125 C 36.96875 15.644531 37.035156 14.5 36.898438 13.34375 C 36.277344 13.601562 35.339844 14.089844 34.101562 15.027344 C 33.835938 15.226562 33.542969 15.296875 33.21875 15.234375 C 29.484375 14.519531 25.75 14.519531 22.011719 15.234375 C 21.6875 15.296875 21.394531 15.226562 21.132812 15.027344 C 19.882812 14.078125 18.945312 13.589844 18.320312 13.335938 C 18.171875 14.492188 18.246094 15.632812 18.535156 16.761719 C 18.625 17.101562 18.566406 17.417969 18.363281 17.703125 C 17.429688 19.015625 17.015625 20.476562 17.117188 22.085938 C 17.117188 22.113281 17.117188 22.136719 17.117188 22.160156 C 17.117188 26.648438 21.03125 29.066406 24.710938 29.066406 C 24.925781 29.066406 25.125 29.125 25.308594 29.242188 C 25.492188 29.355469 25.628906 29.511719 25.722656 29.707031 C 25.816406 29.902344 25.851562 30.109375 25.828125 30.324219 C 25.804688 30.539062 25.722656 30.730469 25.589844 30.902344 C 25.109375 31.503906 24.765625 32.175781 24.558594 32.917969 C 24.347656 33.660156 24.285156 34.417969 24.375 35.1875 C 24.378906 35.226562 24.382812 35.269531 24.382812 35.3125 L 24.382812 41.15625 C 24.382812 41.304688 24.351562 41.449219 24.296875 41.589844 C 24.238281 41.726562 24.160156 41.847656 24.054688 41.953125 C 23.949219 42.0625 23.828125 42.140625 23.6875 42.199219 C 23.550781 42.257812 23.40625 42.285156 23.257812 42.285156 C 23.109375 42.285156 22.964844 42.257812 22.828125 42.199219 C 22.691406 42.140625 22.570312 42.0625 22.464844 41.953125 C 22.359375 41.847656 22.277344 41.726562 22.222656 41.589844 C 22.164062 41.449219 22.136719 41.304688 22.136719 41.15625 L 22.136719 35.375 C 22.023438 34.332031 22.113281 33.308594 22.398438 32.300781 C 22.507812 31.910156 22.644531 31.527344 22.8125 31.160156 C 21.015625 30.851562 19.414062 30.121094 18 28.964844 C 15.996094 27.28125 14.886719 24.878906 14.875 22.199219 C 14.757812 20.257812 15.214844 18.46875 16.246094 16.824219 C 15.878906 15.089844 15.917969 13.363281 16.363281 11.648438 C 16.425781 11.398438 16.5625 11.195312 16.761719 11.039062 C 16.964844 10.882812 17.195312 10.804688 17.449219 10.804688 C 17.742188 10.804688 19.285156 10.910156 22.082031 12.925781 C 25.773438 12.277344 29.464844 12.277344 33.15625 12.925781 C 35.953125 10.910156 37.496094 10.804688 37.789062 10.804688 C 38.046875 10.804688 38.277344 10.882812 38.480469 11.042969 C 38.683594 11.203125 38.816406 11.410156 38.878906 11.664062 C 39.292969 13.375 39.328125 15.09375 38.992188 16.816406 C 40.023438 18.460938 40.480469 20.257812 40.367188 22.199219 C 40.355469 24.878906 39.242188 27.28125 37.238281 28.964844 C 35.824219 30.121094 34.21875 30.855469 32.417969 31.160156 C 33.027344 32.5 33.257812 33.90625 33.105469 35.371094 L 33.105469 41.15625 C 33.105469 41.304688 33.074219 41.449219 33.019531 41.589844 C 32.960938 41.726562 32.878906 41.851562 32.773438 41.957031 C 32.667969 42.0625 32.546875 42.144531 32.40625 42.199219 C 32.269531 42.257812 32.125 42.285156 31.976562 42.285156 Z M 31.976562 42.285156 " fill-opacity="1" fill-rule="nonzero"/></g><g clip-path="url(#927ad22c3f)"><path fill="#ffffff" d="M 19.972656 37.253906 C 17.488281 37.253906 16.019531 35.816406 14.9375 34.757812 C 14.152344 33.992188 13.640625 33.515625 13.09375 33.515625 C 12.941406 33.515625 12.800781 33.488281 12.664062 33.429688 C 12.523438 33.375 12.402344 33.292969 12.296875 33.1875 C 12.191406 33.082031 12.113281 32.957031 12.054688 32.820312 C 11.996094 32.683594 11.96875 32.539062 11.96875 32.386719 C 11.96875 32.238281 11.996094 32.09375 12.054688 31.957031 C 12.113281 31.816406 12.191406 31.695312 12.296875 31.589844 C 12.402344 31.484375 12.523438 31.402344 12.664062 31.34375 C 12.800781 31.285156 12.941406 31.257812 13.09375 31.257812 C 14.582031 31.257812 15.601562 32.257812 16.503906 33.140625 C 17.992188 34.59375 19.277344 35.851562 22.804688 34.277344 C 22.941406 34.214844 23.085938 34.179688 23.234375 34.175781 C 23.386719 34.171875 23.53125 34.195312 23.671875 34.25 C 23.8125 34.300781 23.9375 34.378906 24.046875 34.484375 C 24.15625 34.585938 24.238281 34.707031 24.300781 34.847656 C 24.363281 34.984375 24.394531 35.128906 24.398438 35.28125 C 24.398438 35.429688 24.375 35.578125 24.320312 35.71875 C 24.265625 35.859375 24.183594 35.984375 24.078125 36.089844 C 23.976562 36.199219 23.855469 36.285156 23.714844 36.34375 C 22.253906 36.996094 21.023438 37.253906 19.972656 37.253906 Z M 19.972656 37.253906 " fill-opacity="1" fill-rule="nonzero"/></g></svg>