<svg xmlns="http://www.w3.org/2000/svg" xmlns:xlink="http://www.w3.org/1999/xlink" width="1000" zoomAndPan="magnify" viewBox="0 0 750 749.999995" height="1000" preserveAspectRatio="xMidYMid meet" version="1.0"><defs><g/><clipPath id="878c379ada"><path d="M 332 13.582031 L 351 13.582031 L 351 27 L 332 27 Z M 332 13.582031 " clip-rule="nonzero"/></clipPath><clipPath id="c3671ad8f1"><path d="M 28 20 L 737.769531 20 L 737.769531 744 L 28 744 Z M 28 20 " clip-rule="nonzero"/></clipPath><clipPath id="4c10088018"><path d="M 588.226562 630.355469 L 686 630.355469 L 686 677 L 588.226562 677 Z M 588.226562 630.355469 " clip-rule="nonzero"/></clipPath><clipPath id="82711106ec"><path d="M 102 188 L 447 188 L 447 677.300781 L 102 677.300781 Z M 102 188 " clip-rule="nonzero"/></clipPath><clipPath id="9806f2230e"><path d="M 153 428.3125 L 589 428.3125 L 589 677 L 153 677 Z M 153 428.3125 " clip-rule="nonzero"/></clipPath><clipPath id="c10b356882"><path d="M 34.96875 675 L 715.335938 675 L 715.335938 677.300781 L 34.96875 677.300781 Z M 34.96875 675 " clip-rule="nonzero"/></clipPath></defs><path fill="#bf001d" d="M 294.429688 23.59375 C 294.339844 22.679688 294.183594 21.703125 293.921875 20.625 C 292.492188 22.226562 292.988281 23.070312 294.429688 23.59375 Z M 294.429688 23.59375 " fill-opacity="1" fill-rule="nonzero"/><path fill="#bf001d" d="M 419.636719 20.28125 C 422.695312 20.300781 425.75 20.324219 425.75 20.324219 C 426.328125 20.449219 426.703125 20.503906 426.933594 20.519531 C 427.019531 20.511719 427.109375 20.496094 427.195312 20.488281 C 427.214844 20.085938 415.457031 16.671875 415.117188 20.265625 C 415.226562 20.261719 415.320312 20.257812 415.441406 20.253906 C 416.582031 20.261719 418.109375 20.269531 419.636719 20.28125 Z M 419.636719 20.28125 " fill-opacity="1" fill-rule="nonzero"/><path fill="#bf001d" d="M 360.910156 22.714844 C 359.515625 22.136719 357.972656 21.679688 356.355469 21.394531 C 357.640625 21.828125 359.199219 22.273438 360.910156 22.714844 Z M 360.910156 22.714844 " fill-opacity="1" fill-rule="nonzero"/><path fill="#bf001d" d="M 394.820312 26.496094 C 392.441406 25.824219 389.996094 25.304688 387.464844 24.925781 C 385.308594 24.625 383.101562 24.445312 380.847656 24.421875 C 378.601562 24.492188 376.3125 24.722656 373.984375 25.121094 C 373.984375 25.121094 374.023438 25.1875 374.082031 25.289062 C 377.296875 25.746094 380.648438 26.117188 384.042969 26.324219 C 387.644531 26.652344 391.269531 26.667969 394.820312 26.496094 Z M 394.820312 26.496094 " fill-opacity="1" fill-rule="nonzero"/><g clip-path="url(#878c379ada)"><path fill="#bf001d" d="M 345.710938 23.394531 C 348.4375 22.789062 350.253906 22.386719 350.253906 22.386719 C 350.253906 22.386719 348.648438 20.175781 347.039062 17.960938 C 345.402344 15.769531 343.765625 13.574219 343.765625 13.574219 C 330.191406 13.78125 331.855469 17.484375 333.277344 21.304688 C 333.976562 23.203125 334.585938 25.144531 333.289062 26.710938 C 334.125 26.484375 334.964844 26.261719 335.8125 26.039062 C 339.414062 25.074219 343.011719 24.113281 345.710938 23.394531 Z M 345.710938 23.394531 " fill-opacity="1" fill-rule="nonzero"/></g><path fill="#bf001d" d="M 333.265625 26.75 C 333.273438 26.738281 333.277344 26.722656 333.289062 26.710938 C 330.582031 27.441406 328.011719 28.183594 325.992188 28.882812 C 323.335938 29.734375 321.566406 30.304688 321.566406 30.304688 C 325.128906 29.9375 327.703125 29.421875 329.566406 28.789062 C 331.4375 28.203125 332.601562 27.546875 333.265625 26.75 Z M 333.265625 26.75 " fill-opacity="1" fill-rule="nonzero"/><path fill="#bf001d" d="M 561.308594 704.660156 C 560.511719 705.785156 559.34375 707.058594 558.015625 708.378906 C 559.40625 707.953125 560.757812 707.429688 562.039062 706.667969 Z M 561.308594 704.660156 " fill-opacity="1" fill-rule="nonzero"/><path fill="#bf001d" d="M 559.441406 699.617188 L 561.308594 704.660156 C 562.9375 702.191406 563.015625 700.304688 559.441406 699.617188 Z M 559.441406 699.617188 " fill-opacity="1" fill-rule="nonzero"/><path fill="#bf001d" d="M 513.367188 722.597656 C 509.675781 726.382812 505.757812 729.835938 505.757812 729.835938 C 509.144531 729.171875 514.804688 727.476562 518.640625 724.96875 C 522.496094 722.472656 524.464844 719.214844 520.675781 715.1875 C 520.679688 715.1875 517.023438 718.894531 513.367188 722.597656 Z M 513.367188 722.597656 " fill-opacity="1" fill-rule="nonzero"/><path fill="#bf001d" d="M 626.816406 595.679688 L 623.476562 593.394531 C 623.691406 594.84375 624.484375 595.855469 626.816406 595.679688 Z M 626.816406 595.679688 " fill-opacity="1" fill-rule="nonzero"/><path fill="#bf001d" d="M 59.402344 239.402344 C 59.125 238.644531 58.707031 237.871094 58.074219 237.070312 C 58.074219 237.066406 58.589844 237.984375 59.402344 239.402344 Z M 59.402344 239.402344 " fill-opacity="1" fill-rule="nonzero"/><path fill="#bf001d" d="M 378.289062 731.660156 L 377.882812 731.089844 C 377.847656 731.328125 377.996094 731.511719 378.289062 731.660156 Z M 378.289062 731.660156 " fill-opacity="1" fill-rule="nonzero"/><path fill="#bf001d" d="M 570.203125 89.980469 C 571.148438 89.035156 571.796875 88.386719 571.796875 88.386719 C 571.003906 88.792969 570.515625 89.347656 570.203125 89.980469 Z M 570.203125 89.980469 " fill-opacity="1" fill-rule="nonzero"/><path fill="#bf001d" d="M 718.429688 466.886719 C 718.210938 466.90625 718.015625 466.90625 717.804688 466.925781 C 717.789062 467.242188 717.78125 467.558594 717.765625 467.878906 C 717.988281 467.546875 718.191406 467.226562 718.429688 466.886719 Z M 718.429688 466.886719 " fill-opacity="1" fill-rule="nonzero"/><path fill="#bf001d" d="M 714.011719 497.613281 C 715.496094 488.632812 717.09375 477.753906 717.75 468.386719 C 717.757812 468.210938 717.761719 468.050781 717.769531 467.878906 C 714.589844 472.644531 713.175781 476.617188 713.058594 481.023438 C 712.9375 485.734375 713.699219 490.84375 714.011719 497.613281 Z M 714.011719 497.613281 " fill-opacity="1" fill-rule="nonzero"/><path fill="#bf001d" d="M 687.019531 570.976562 C 687.734375 571.558594 688.535156 572.136719 689.480469 572.71875 C 689.359375 570.574219 688.410156 570.324219 687.019531 570.976562 Z M 687.019531 570.976562 " fill-opacity="1" fill-rule="nonzero"/><path fill="#bf001d" d="M 666.714844 567.722656 C 666.714844 567.722656 669.207031 564.21875 671.570312 560.613281 C 673.851562 556.953125 676.132812 553.292969 676.132812 553.292969 C 679.125 557.46875 677.28125 562.488281 675.046875 566.929688 C 672.863281 571.40625 670.738281 575.527344 673.75 578.699219 C 677.410156 579.808594 683.59375 572.582031 687.019531 570.976562 C 681.019531 566.097656 682.785156 561.207031 683.945312 557.234375 C 685.230469 552.800781 685.605469 549.675781 673.390625 549.179688 C 672.84375 550.226562 672.308594 551.304688 671.789062 552.464844 C 670 556.519531 668.40625 561.363281 666.714844 567.722656 Z M 666.714844 567.722656 " fill-opacity="1" fill-rule="nonzero"/><path fill="#bf001d" d="M 685.871094 515.195312 C 685.25 521.714844 684.085938 526.75 682.660156 530.96875 C 681.542969 533.859375 680.3125 536.351562 679.058594 538.730469 C 680.417969 537.976562 681.851562 537.769531 683.324219 537.558594 C 687.128906 536.992188 691.476562 536.375 694.523438 524.789062 C 694.523438 524.789062 692.371094 522.367188 690.214844 519.941406 C 688.042969 517.566406 685.871094 515.195312 685.871094 515.195312 Z M 685.871094 515.195312 " fill-opacity="1" fill-rule="nonzero"/><path fill="#bf001d" d="M 673.0625 549.160156 C 673.179688 549.164062 673.273438 549.171875 673.390625 549.179688 C 674.742188 546.570312 676.128906 544.230469 677.386719 541.824219 C 677.945312 540.804688 678.503906 539.773438 679.054688 538.726562 C 678.636719 538.960938 678.226562 539.238281 677.820312 539.59375 C 676.058594 541.085938 674.695312 543.917969 673.0625 549.160156 Z M 673.0625 549.160156 " fill-opacity="1" fill-rule="nonzero"/><path fill="#bf001d" d="M 625.332031 631.492188 C 626.867188 629.851562 628.324219 628.070312 629.6875 626.140625 C 629.6875 626.140625 629.613281 626.121094 629.503906 626.09375 C 626.90625 628.042969 624.277344 630.152344 621.730469 632.40625 C 618.945312 634.71875 616.371094 637.273438 613.980469 639.90625 C 616.140625 638.695312 618.238281 637.335938 620.292969 635.8125 C 622.03125 634.503906 623.71875 633.066406 625.332031 631.492188 Z M 625.332031 631.492188 " fill-opacity="1" fill-rule="nonzero"/><path fill="#bf001d" d="M 640.636719 618.601562 C 642.03125 618.023438 643.441406 617.253906 644.789062 616.3125 C 643.574219 616.917969 642.160156 617.703125 640.636719 618.601562 Z M 640.636719 618.601562 " fill-opacity="1" fill-rule="nonzero"/><path fill="#bf001d" d="M 633.941406 619.613281 C 631.011719 618.996094 629.679688 616.710938 631.289062 611.921875 C 631.289062 611.921875 634.59375 611.839844 637.902344 611.75 C 641.246094 611.613281 644.585938 611.472656 644.585938 611.472656 C 644.585938 611.472656 644.554688 609.832031 644.503906 607.367188 C 644.480469 604.9375 644.300781 601.640625 644.046875 598.355469 C 643.589844 591.804688 642.980469 585.480469 642.980469 585.480469 C 643.117188 590.117188 641.472656 593.953125 639.21875 597.21875 C 637.003906 600.511719 633.832031 603.007812 631.335938 605.441406 C 626.324219 610.3125 622.902344 614.191406 629.65625 621.363281 C 629.65625 621.363281 627.050781 621.910156 624.445312 622.460938 C 621.863281 622.976562 619.285156 623.492188 619.285156 623.492188 C 619.285156 623.492188 621.878906 624.167969 624.46875 624.839844 C 626.6875 625.390625 628.890625 625.9375 629.507812 626.089844 C 633.492188 623.097656 637.355469 620.535156 640.640625 618.597656 C 638.195312 619.609375 635.808594 620.011719 633.941406 619.613281 Z M 633.941406 619.613281 " fill-opacity="1" fill-rule="nonzero"/><path fill="#bf001d" d="M 600.828125 661.847656 C 598.652344 663.992188 596.476562 666.136719 596.476562 666.136719 C 595.984375 666.457031 595.683594 666.679688 595.503906 666.828125 C 595.449219 666.894531 595.394531 666.972656 595.335938 667.039062 C 595.613281 667.332031 606.335938 661.433594 604.039062 658.65625 C 603.964844 658.738281 603.898438 658.808594 603.816406 658.894531 C 603.003906 659.699219 601.914062 660.769531 600.828125 661.847656 Z M 600.828125 661.847656 " fill-opacity="1" fill-rule="nonzero"/><path fill="#bf001d" d="M 663.085938 585.417969 C 660.828125 588.195312 659.367188 590.382812 658.5 592.144531 C 657.589844 593.882812 657.238281 595.167969 657.332031 596.203125 C 657.332031 596.21875 657.34375 596.230469 657.34375 596.242188 C 658.738281 593.8125 660.03125 591.472656 660.964844 589.554688 C 662.234375 587.074219 663.085938 585.417969 663.085938 585.417969 Z M 663.085938 585.417969 " fill-opacity="1" fill-rule="nonzero"/><path fill="#bf001d" d="M 661.171875 600.0625 C 659.332031 599.214844 657.535156 598.269531 657.34375 596.242188 C 656.914062 596.992188 656.472656 597.75 656.03125 598.507812 C 654.167969 601.734375 652.304688 604.957031 650.90625 607.375 C 649.402344 609.730469 648.40625 611.300781 648.40625 611.300781 C 648.40625 611.300781 651.105469 611.726562 653.808594 612.15625 C 656.519531 612.550781 659.222656 612.945312 659.222656 612.945312 C 668.671875 603.199219 664.875 601.757812 661.171875 600.0625 Z M 661.171875 600.0625 " fill-opacity="1" fill-rule="nonzero"/><path fill="#bf001d" d="M 16.679688 278.085938 C 16.449219 276.722656 16.371094 274.996094 16.382812 273.128906 C 15.695312 274.410156 15.109375 275.738281 14.746094 277.183594 Z M 16.679688 278.085938 " fill-opacity="1" fill-rule="nonzero"/><path fill="#bf001d" d="M 21.570312 280.332031 L 16.679688 278.085938 C 17.277344 280.984375 18.558594 282.375 21.570312 280.332031 Z M 21.570312 280.332031 " fill-opacity="1" fill-rule="nonzero"/><path fill="#bf001d" d="M 32.085938 258.261719 C 36.769531 254.671875 38.609375 251.523438 31.433594 245.898438 C 31.433594 245.898438 29.246094 249.734375 27.0625 253.574219 C 25.972656 255.507812 24.882812 257.4375 24.070312 258.886719 C 23.253906 260.328125 22.734375 261.308594 22.734375 261.304688 C 16.027344 257.855469 12.695312 256.109375 18.480469 246.445312 C 14.554688 247.507812 13.957031 258.425781 13.160156 264.207031 L 15.546875 260.746094 C 16.578125 263.894531 16.335938 268.875 16.382812 273.128906 C 20.054688 266.066406 27.304688 261.78125 32.085938 258.261719 Z M 32.085938 258.261719 " fill-opacity="1" fill-rule="nonzero"/><path fill="#bf001d" d="M 37.96875 241.910156 C 37.96875 241.910156 37.929688 236.707031 37.898438 231.503906 C 37.832031 226.21875 38.160156 221.003906 38.160156 221.003906 C 36.234375 223.863281 33.429688 229.066406 32.492188 233.554688 C 31.527344 238.046875 32.4375 241.742188 37.96875 241.910156 Z M 37.96875 241.910156 " fill-opacity="1" fill-rule="nonzero"/><path fill="#bf001d" d="M 57.941406 226.71875 C 59.855469 223.800781 61.875 221.191406 61.808594 217.792969 C 57.007812 220.828125 57.125 218.917969 58.523438 215.601562 C 59.945312 212.308594 62.605469 207.628906 62.597656 205.066406 C 45.882812 218.058594 62.078125 215.714844 57.941406 226.71875 Z M 57.941406 226.71875 " fill-opacity="1" fill-rule="nonzero"/><path fill="#bf001d" d="M 57.941406 226.71875 C 57.070312 228.078125 56.238281 229.53125 55.761719 231.175781 C 56.847656 229.453125 57.457031 228.039062 57.941406 226.71875 Z M 57.941406 226.71875 " fill-opacity="1" fill-rule="nonzero"/><path fill="#bf001d" d="M 127.003906 129.59375 L 127.695312 129.707031 C 127.554688 129.511719 127.316406 129.484375 127.003906 129.59375 Z M 127.003906 129.59375 " fill-opacity="1" fill-rule="nonzero"/><g clip-path="url(#c3671ad8f1)"><path fill="#bf001d" d="M 735.191406 359.527344 C 733.652344 355.363281 731.898438 350.445312 730.714844 345.710938 C 729.550781 340.972656 729.320312 336.328125 731.390625 332.472656 L 724.03125 333.859375 C 723.992188 333.351562 723.9375 332.839844 723.894531 332.332031 C 723.265625 323.542969 722.855469 317.980469 722.90625 314.214844 C 722.839844 310.257812 723.074219 308.3125 723.433594 306.542969 C 723.777344 304.78125 724.183594 303.214844 724.25 300.015625 C 724.285156 298.414062 724.230469 296.402344 724.039062 293.75 C 723.746094 291.125 723.292969 287.867188 722.589844 283.726562 C 722.589844 283.726562 719.808594 282.117188 717.027344 280.507812 C 716.246094 280.070312 715.488281 279.636719 714.769531 279.230469 C 714.296875 277.429688 713.820312 275.632812 713.3125 273.839844 C 713.359375 273.796875 713.394531 273.75 713.445312 273.703125 C 713.136719 272.808594 712.796875 271.910156 712.476562 271.015625 C 707.574219 254.308594 701.308594 238.1875 693.796875 222.785156 C 692.613281 218.882812 690.835938 214.917969 688.015625 211.195312 C 688.015625 211.195312 688.078125 211.4375 688.164062 211.792969 C 684.398438 204.796875 680.378906 197.949219 676.105469 191.289062 C 676.554688 190.910156 676.988281 190.453125 677.378906 189.816406 C 674.589844 185.699219 671.316406 182.105469 667.75 178.941406 C 642.015625 142.785156 608.707031 112.402344 570.148438 90.082031 C 570.160156 90.046875 570.191406 90.015625 570.207031 89.984375 C 570.179688 90.011719 570.152344 90.039062 570.125 90.066406 C 567.050781 88.285156 563.933594 86.566406 560.792969 84.890625 C 561.945312 83.605469 563.222656 82.289062 564.507812 80.960938 C 571.113281 74.152344 577.941406 66.84375 564.566406 61.167969 C 569.691406 67.425781 567.269531 72.933594 562.75 76.15625 C 558.179688 79.421875 551.707031 80.246094 547.511719 77.222656 C 547.578125 77.488281 547.585938 77.84375 547.566406 78.234375 C 545.726562 77.363281 543.878906 76.5 542.019531 75.664062 C 546.449219 74.171875 547.253906 71.359375 545.648438 68.484375 C 543.9375 65.398438 539.527344 62.214844 534.335938 61.195312 C 536.457031 62.1875 538.199219 63.367188 539.523438 64.675781 C 540.824219 66.039062 541.742188 67.476562 542.269531 68.878906 C 543.222656 71.398438 542.878906 73.761719 541.464844 75.421875 C 538.667969 74.171875 535.851562 72.972656 533.011719 71.804688 C 532.40625 71.363281 531.804688 70.929688 531.195312 70.484375 C 532.09375 70.121094 533.089844 69.460938 534.230469 68.371094 C 537.339844 63.179688 532.058594 57.40625 524.511719 51.867188 C 520.714844 49.195312 516.421875 46.460938 512.425781 43.804688 C 508.382812 41.300781 504.675781 38.773438 502.160156 36.171875 C 496.757812 35.449219 493.796875 36.390625 491.699219 37.890625 C 489.578125 39.457031 488.234375 41.851562 485.9375 44.824219 C 485.386719 41.292969 482.613281 38.28125 479.707031 35.546875 C 476.804688 32.796875 473.828125 30.039062 473.03125 26.484375 C 467.054688 27.722656 462.070312 27.769531 457.503906 27.023438 C 452.945312 26.253906 448.816406 24.648438 444.613281 23.402344 C 440.421875 22.09375 436.191406 20.726562 431.570312 20.382812 C 430.15625 20.3125 428.691406 20.371094 427.199219 20.492188 C 427.199219 20.527344 427.113281 20.539062 426.933594 20.523438 C 423.628906 20.824219 420.140625 21.609375 416.382812 23.238281 C 415.402344 21.929688 415.046875 20.96875 415.117188 20.269531 C 414.164062 20.300781 413.53125 20.320312 413.53125 20.320312 L 414.824219 21.78125 C 410.6875 24.207031 405.765625 25.539062 400.488281 26.082031 C 398.640625 26.277344 396.742188 26.402344 394.824219 26.496094 C 396.507812 26.972656 398.160156 27.511719 399.765625 28.171875 C 400.878906 28.652344 401.933594 29.191406 403.011719 29.703125 C 399.992188 29.972656 396.191406 30.472656 392.386719 30.914062 C 386.980469 31.484375 381.636719 32.316406 378.578125 32.828125 C 378.078125 31.96875 377.421875 30.855469 376.761719 29.730469 C 375.582031 27.777344 374.410156 25.832031 374.082031 25.285156 C 369.144531 24.582031 364.601562 23.664062 360.910156 22.710938 C 363.347656 23.726562 365.320312 25.128906 366.355469 26.726562 C 367.117188 27.890625 367.351562 29.066406 366.964844 30.210938 C 366.136719 30.257812 365.308594 30.316406 364.480469 30.351562 C 362.71875 30.488281 360.964844 30.535156 359.207031 30.628906 C 358.8125 30.253906 358.410156 29.871094 358.003906 29.488281 C 355.539062 27.222656 353.082031 24.957031 353.082031 24.957031 C 353.082031 24.957031 351.945312 26.140625 350.234375 27.921875 C 349.351562 28.824219 348.328125 29.925781 347.253906 31.121094 C 341.230469 31.34375 335.273438 31.734375 329.457031 31.957031 C 321.925781 32.5 314.648438 33.261719 307.914062 34.429688 C 302.320312 35.585938 297.117188 36.964844 292.460938 38.816406 C 294.484375 37 297.273438 35.832031 300.042969 34.917969 C 304.75 33.296875 309.164062 31.886719 309.277344 27.515625 C 307.476562 24.144531 297.992188 24.882812 294.4375 23.59375 C 295.226562 31.289062 290.523438 33.492188 286.894531 35.484375 C 283.222656 37.5 280.859375 39.296875 286.628906 46.316406 C 286.242188 47.519531 286.285156 48.511719 287.167969 49.101562 C 284.917969 49.773438 282.75 50.351562 280.628906 51.015625 C 279.515625 51.34375 278.390625 51.679688 277.265625 52.027344 C 277.726562 52.160156 278.210938 52.257812 278.746094 52.289062 C 280.878906 52.464844 283.601562 51.570312 287.847656 49.417969 C 289.292969 49.878906 291.949219 49.753906 296.566406 48.699219 C 291.113281 54.078125 284.027344 55.921875 276.289062 56.027344 C 273.351562 56.214844 270.316406 56.136719 267.285156 56.007812 C 267.941406 55.652344 268.597656 55.285156 269.226562 54.972656 C 272.058594 53.722656 274.695312 52.828125 277.265625 52.03125 C 275.769531 51.605469 274.605469 50.738281 273.417969 49.847656 C 270.328125 47.554688 266.816406 44.921875 256.46875 50.957031 C 256.46875 50.957031 256.347656 53.070312 256.199219 55.578125 C 255.21875 55.5625 254.214844 55.515625 253.277344 55.542969 C 253.277344 55.542969 253.769531 54.703125 254.519531 53.445312 C 255.265625 52.167969 256.289062 50.523438 257.335938 48.90625 C 259.460938 45.640625 261.59375 42.378906 261.59375 42.378906 C 242.828125 48.8125 221.296875 53.164062 200.890625 60.527344 C 180.554688 67.761719 161.414062 77.769531 149.246094 92.113281 L 158.992188 94.964844 C 157.375 96.332031 155.734375 97.652344 154.070312 98.925781 C 152.4375 100.242188 150.820312 101.5625 149.171875 102.8125 C 145.878906 105.335938 142.53125 107.699219 139.179688 109.945312 C 132.648438 114.671875 126.027344 118.898438 120.007812 123.160156 C 114.097656 127.539062 108.378906 131.507812 103.929688 135.820312 C 99.449219 140.097656 95.855469 144.320312 93.722656 148.644531 C 106.8125 144.671875 105.042969 149.117188 99.992188 155.261719 C 98.792969 156.855469 97.382812 158.5625 95.925781 160.296875 C 95.433594 160.519531 94.925781 160.710938 94.398438 160.867188 L 95.058594 161.316406 C 90.878906 166.238281 86.585938 171.175781 86.066406 173.957031 C 88.445312 172.054688 90.851562 169.941406 93.25 167.695312 C 94.761719 166.242188 96.234375 164.695312 97.6875 163.109375 L 100.605469 165.105469 C 94.230469 172.464844 90.347656 176.996094 87.492188 179.777344 C 84.742188 182.625 83.199219 183.835938 81.691406 184.828125 C 80.199219 185.835938 78.808594 186.652344 76.496094 188.867188 C 75.34375 189.976562 73.953125 191.433594 72.214844 193.449219 C 70.566406 195.507812 68.582031 198.136719 66.152344 201.558594 C 66.152344 201.558594 66.980469 204.664062 67.804688 207.769531 C 68.230469 209.304688 68.65625 210.839844 68.976562 211.988281 C 69.332031 213.140625 69.566406 213.910156 69.566406 213.910156 C 70.246094 214.980469 71.027344 207.488281 73.003906 200.234375 C 74.839844 192.925781 78.476562 186.273438 83.269531 189.050781 C 82.902344 191.75 82.363281 194.476562 81.707031 197.230469 C 81.097656 200.007812 80.457031 202.859375 79.691406 205.710938 C 78.941406 208.566406 78.113281 211.449219 77.261719 214.347656 C 76.433594 217.257812 75.734375 220.253906 74.96875 223.222656 C 74.226562 226.199219 73.503906 229.191406 72.851562 232.175781 C 72.246094 235.175781 71.832031 238.21875 71.464844 241.214844 C 71.113281 244.21875 70.878906 247.199219 70.808594 250.140625 C 70.765625 253.089844 71.03125 256.042969 71.425781 258.90625 C 71.425781 258.90625 67.867188 253.621094 64.523438 248.148438 C 62.550781 244.878906 60.628906 241.546875 59.398438 239.398438 C 60.949219 243.652344 57.390625 247.402344 52.964844 252.472656 C 50.308594 255.4375 47.242188 258.824219 44.585938 262.878906 C 42.109375 266.96875 40.0625 271.742188 39.304688 277.292969 C 39.304688 277.292969 41.90625 272.984375 44.503906 268.675781 C 45.824219 266.546875 47.074219 264.414062 48.117188 262.855469 C 49.164062 261.292969 49.863281 260.257812 49.863281 260.257812 C 52.8125 265.164062 53.867188 270.808594 53.488281 276.902344 C 53.027344 282.980469 51.765625 289.652344 50.199219 296.597656 C 49.800781 298.332031 49.402344 300.085938 48.996094 301.847656 C 48.667969 303.621094 48.34375 305.40625 48.015625 307.195312 C 47.394531 310.773438 46.84375 314.375 46.488281 317.9375 C 45.851562 325.0625 46.371094 332.058594 48.417969 338.265625 C 48.988281 331.640625 49.609375 325.019531 54.945312 324.425781 C 55.414062 325.015625 55.769531 325.710938 56.066406 326.460938 C 56.046875 328.945312 56.207031 329.417969 56.773438 329.101562 C 57.191406 331.757812 57.003906 334.914062 56.433594 338.222656 C 55.5625 343.828125 53.921875 349.878906 52.21875 354.390625 C 51.523438 354.261719 50.875 354.042969 50.25 353.785156 C 49.539062 349.339844 49.855469 344.96875 52.910156 338.933594 C 52.910156 338.933594 50.246094 339.367188 47.582031 339.804688 C 44.917969 340.273438 42.25 340.742188 42.25 340.742188 C 42.316406 341.765625 42.414062 342.773438 42.519531 343.777344 C 42.515625 343.765625 42.507812 343.757812 42.507812 343.746094 C 40.464844 338.121094 40.167969 331.015625 39.683594 324.183594 C 39.074219 310.554688 39.671875 298 31.714844 299.933594 C 30.324219 307.148438 30.386719 314.320312 31.550781 321.160156 C 32.851562 328.011719 34.824219 334.515625 36.988281 340.539062 C 39.265625 346.570312 41.492188 352.132812 42.835938 357.238281 C 44.296875 362.351562 45.019531 367.019531 43.925781 371.367188 C 43.925781 371.367188 41.074219 367.925781 38.21875 364.480469 C 36.796875 362.714844 35.375 360.949219 34.308594 359.625 C 33.226562 358.289062 32.578125 357.386719 32.578125 357.386719 C 32.578125 357.386719 32.757812 358.261719 33.136719 359.570312 C 33.5 360.871094 33.984375 362.609375 34.464844 364.347656 C 35.441406 367.792969 36.417969 371.238281 36.417969 371.238281 L 37.121094 367.148438 C 41.691406 369.988281 41.449219 374.332031 40.742188 379.421875 C 40.097656 384.492188 38.765625 390.351562 40.625 395.699219 C 40.625 395.699219 37.699219 394.121094 34.773438 392.542969 C 31.84375 390.910156 28.917969 389.277344 28.917969 389.277344 C 28.917969 389.277344 29 390.585938 29.125 392.546875 C 29.28125 394.511719 29.351562 397.136719 29.675781 399.746094 C 30.257812 404.96875 30.839844 410.191406 30.839844 410.191406 L 33.519531 407.167969 C 42.574219 439.886719 47.957031 467.617188 52.320312 498.835938 C 52.320312 498.835938 52.1875 497.675781 51.984375 495.9375 C 51.800781 494.191406 51.46875 491.914062 51.335938 489.570312 C 51.015625 484.933594 50.691406 480.300781 50.691406 480.300781 C 53.324219 481.023438 56.839844 490 58.515625 498.207031 C 61.285156 495.792969 59.957031 489.75 59.3125 484.054688 C 58.683594 479.347656 58.167969 475.082031 59.789062 473.675781 C 61.242188 481.894531 63.023438 490.0625 65.140625 498.164062 C 65.253906 500.074219 65.328125 501.953125 65.367188 503.839844 C 65.457031 508.183594 65.738281 512.484375 66.257812 517.609375 C 66.535156 520.15625 66.898438 522.90625 67.445312 525.914062 C 68.082031 528.875 68.886719 532.105469 69.929688 535.683594 C 71.867188 535.910156 73.332031 532.710938 75.128906 529.515625 C 77.167969 534.894531 79.371094 540.214844 81.71875 545.492188 C 79.9375 546.738281 77.167969 546.640625 72.332031 543.863281 C 80.460938 551.179688 80.734375 555.445312 81.261719 559.140625 C 81.789062 562.777344 82.765625 565.722656 91.949219 569.550781 C 90.375 568.210938 89.21875 565.355469 88.09375 562.507812 C 88.339844 561.695312 88.65625 561.144531 89.007812 560.734375 C 92.847656 568.234375 97.003906 575.617188 101.496094 582.847656 C 101.605469 589.003906 102.820312 595.175781 107.925781 603.203125 C 107.925781 603.203125 109.507812 604.570312 111.882812 606.617188 C 114.269531 608.648438 117.609375 611.199219 120.867188 613.78125 C 123.355469 615.789062 125.882812 617.71875 128.066406 619.339844 C 129.757812 621.335938 131.476562 623.320312 133.226562 625.289062 C 132.382812 625.972656 131.261719 626.164062 131.261719 626.164062 C 134.332031 628.636719 137.28125 631.25 140.199219 633.910156 C 143.195312 636.480469 146.121094 639.132812 148.992188 641.820312 C 149.464844 642.28125 149.953125 642.703125 150.425781 643.152344 C 151.113281 643.816406 151.804688 644.472656 152.5 645.128906 C 152.710938 646.605469 153.632812 648.050781 155.746094 649.214844 C 156.597656 649.652344 157.363281 649.988281 158.046875 650.242188 C 158.125 650.308594 158.210938 650.378906 158.289062 650.453125 C 160.925781 652.832031 163.558594 655.183594 166.101562 657.539062 C 171.808594 662.484375 177.5 667.089844 183.082031 671.023438 C 185.113281 672.355469 187.113281 673.582031 189.105469 674.75 C 197.164062 680.3125 205.425781 685.460938 213.867188 690.175781 C 213.867188 690.246094 213.871094 690.300781 213.867188 690.367188 C 214.570312 690.707031 215.3125 691.015625 216.019531 691.347656 C 219.601562 693.308594 223.207031 695.207031 226.84375 697.019531 C 223.910156 697.636719 221.453125 698.15625 221.453125 698.15625 C 239.269531 706.875 257.574219 719.019531 277.210938 728.238281 C 296.703125 737.5 317.320312 743.960938 336.066406 742.417969 L 331.191406 733.507812 C 333.304688 733.6875 335.398438 733.914062 337.472656 734.183594 C 339.554688 734.410156 341.632812 734.621094 343.6875 734.902344 C 347.796875 735.445312 351.835938 736.144531 355.800781 736.921875 C 363.753906 738.199219 371.425781 739.894531 378.699219 741.132812 C 385.972656 742.214844 392.824219 743.453125 399.019531 743.550781 C 405.210938 743.691406 410.734375 743.246094 415.300781 741.695312 C 403.238281 735.25 407.636719 733.359375 415.550781 732.582031 C 423.515625 731.449219 435.300781 731.480469 438.621094 729.214844 C 435.59375 728.875 432.402344 728.667969 429.113281 728.5625 C 425.828125 728.496094 422.449219 728.613281 419.054688 728.859375 C 412.277344 729.398438 405.449219 729.859375 399.316406 730.65625 C 388.707031 731.714844 380.203125 732.582031 378.296875 731.636719 L 379.035156 732.671875 C 379.035156 732.671875 376.257812 732.960938 372.082031 733.117188 C 367.90625 733.304688 362.304688 733.597656 356.671875 733.761719 C 351.023438 733.730469 345.378906 733.703125 341.144531 733.675781 C 339.011719 733.667969 337.238281 733.621094 336 733.53125 C 334.761719 733.46875 334.054688 733.425781 334.054688 733.425781 L 335.476562 727.984375 C 372.125 731.457031 409.273438 728.417969 445.050781 718.878906 C 445.0625 718.914062 445.0625 718.953125 445.074219 718.988281 C 445.074219 718.953125 445.074219 718.910156 445.074219 718.871094 C 448.507812 717.957031 451.925781 716.96875 455.332031 715.933594 C 455.429688 717.65625 455.457031 719.492188 455.488281 721.339844 C 455.628906 730.824219 455.96875 740.820312 469.441406 735.378906 C 461.394531 734.574219 459.207031 728.96875 460.125 723.496094 C 461.050781 717.957031 465.042969 712.792969 470.148438 711.964844 C 469.910156 711.820312 469.65625 711.578125 469.390625 711.285156 C 471.308594 710.601562 473.222656 709.90625 475.132812 709.179688 C 473.054688 713.367188 474.472656 715.925781 477.644531 716.824219 C 480.28125 717.578125 484.113281 717.207031 487.757812 715.625 C 492.015625 716.785156 490.636719 717.96875 487.539062 719.230469 C 484.207031 720.554688 479.011719 721.980469 477.207031 723.796875 C 495.324219 726.0625 488.074219 719.09375 492.605469 714.023438 C 495.839844 714.5625 499.914062 714.3125 504.339844 713.632812 C 508.917969 712.835938 513.886719 711.734375 518.589844 710.78125 C 522.445312 709.875 526.121094 709.179688 529.339844 708.996094 C 528.101562 710.34375 527.609375 712.777344 528.117188 716.957031 C 528.117188 716.957031 532.378906 715.789062 536.640625 714.617188 C 538.773438 714.023438 540.90625 713.425781 542.507812 712.976562 C 544.109375 712.535156 545.167969 712.210938 545.167969 712.210938 C 547.46875 719.390625 548.589844 722.984375 537.667969 725.730469 C 541.191406 727.75 549.335938 720.457031 553.984375 716.933594 L 549.855469 717.691406 C 551.351562 714.734375 555.042969 711.382812 558.019531 708.34375 C 550.429688 710.742188 542.269531 708.644531 536.402344 707.753906 C 535.105469 707.582031 533.929688 707.503906 532.882812 707.570312 C 535.945312 704.847656 537.0625 702.5 537.429688 700.304688 C 537.820312 697.699219 537.074219 695.054688 536.601562 691.332031 C 539.488281 693.4375 543.578125 693.605469 547.566406 693.488281 C 551.5625 693.378906 555.617188 693.222656 558.691406 695.175781 C 562.046875 690.074219 565.535156 686.519531 569.292969 683.8125 C 573.058594 681.136719 577.113281 679.351562 580.96875 677.257812 C 584.859375 675.222656 588.816406 673.191406 592.328125 670.175781 C 593.371094 669.222656 594.371094 668.148438 595.339844 667.007812 C 595.316406 666.984375 595.367188 666.914062 595.507812 666.796875 C 597.628906 664.246094 599.542969 661.230469 601.046875 657.417969 C 602.664062 657.652344 603.59375 658.082031 604.042969 658.625 C 604.691406 657.929688 605.121094 657.46875 605.121094 657.46875 L 603.175781 657.351562 C 604.382812 652.710938 606.921875 648.292969 610.273438 644.171875 C 611.441406 642.726562 612.691406 641.292969 613.980469 639.871094 C 612.457031 640.726562 610.90625 641.511719 609.304688 642.179688 C 601.449219 645.320312 593.570312 647.140625 585.78125 648.003906 C 581.054688 648.613281 576.609375 649.085938 572.445312 649.621094 C 576.140625 646.285156 579.765625 642.835938 583.332031 639.292969 C 585.476562 640.792969 587.550781 642.246094 587.550781 642.246094 C 590.914062 638.40625 593.78125 634.421875 596.367188 630.332031 C 598.847656 626.355469 600.921875 622.0625 603.023438 617.800781 C 609.878906 609.59375 616.238281 601.113281 622.113281 592.402344 L 623.476562 593.363281 C 623.332031 592.34375 625.335938 589.707031 628.589844 585.574219 C 630.234375 583.53125 632.25 581.167969 634.554688 578.539062 C 636.769531 575.835938 639.238281 572.820312 641.910156 569.554688 C 641.992188 569.457031 642.078125 569.34375 642.15625 569.246094 C 665.054688 544.609375 683.996094 516.25 697.953125 485.164062 C 698.050781 485.09375 698.148438 485.027344 698.253906 484.960938 C 699.855469 483.84375 701.425781 482.660156 702.445312 482.910156 C 703.441406 483.15625 703.925781 484.859375 702.828125 489.40625 C 702.96875 492.035156 704.46875 485.300781 704.632812 477.535156 C 704.78125 474.796875 704.746094 471.949219 704.519531 469.359375 C 705.425781 466.996094 706.300781 464.621094 707.148438 462.238281 C 708.6875 465.507812 711.835938 467.335938 717.808594 466.894531 C 718.164062 458.164062 717.769531 450.980469 715.410156 448.253906 L 717.527344 449.839844 C 717.527344 449.839844 716.28125 445.703125 714.078125 440.160156 C 715.441406 435.167969 716.683594 430.125 717.796875 425.03125 C 720.390625 429.632812 723.464844 432.402344 727.957031 430.050781 C 727.957031 430.050781 726.042969 426.011719 724.125 421.972656 C 723.195312 419.976562 722.144531 418 721.351562 416.523438 C 720.5625 415.054688 720.039062 414.074219 720.039062 414.074219 C 729.117188 419.574219 726.644531 398.582031 733.457031 402.5 C 733.457031 402.5 733.355469 401.8125 733.09375 400.613281 C 732.839844 399.414062 732.480469 397.703125 732.050781 395.652344 C 731.117188 391.558594 730.167969 386.101562 728.679688 380.730469 C 727.316406 375.609375 726.035156 370.554688 724.894531 366.65625 C 724.960938 364.050781 724.996094 361.441406 725 358.820312 L 731.390625 357.085938 C 731.390625 357.085938 730.679688 359.855469 729.96875 362.625 C 729.605469 363.996094 729.246094 365.367188 728.972656 366.394531 C 728.671875 367.421875 728.46875 368.105469 728.46875 368.105469 C 733.835938 370.605469 736.246094 370.621094 736.976562 368.867188 C 737.75 367.144531 736.714844 363.695312 735.191406 359.527344 Z M 104.953125 229.183594 C 105.953125 226.242188 106.933594 223.398438 107.636719 220.53125 C 107.800781 219.890625 107.9375 219.257812 108.085938 218.617188 C 110.582031 216.949219 112.878906 217.707031 114.78125 223.515625 C 114.78125 223.515625 111.136719 226.859375 107.5 230.207031 C 105.585938 232.140625 103.695312 234.046875 102.359375 235.398438 C 103.355469 233.324219 104.246094 231.253906 104.953125 229.183594 Z M 110 210.058594 C 110.472656 208.03125 110.949219 206.007812 111.449219 204.070312 C 111.839844 202.570312 112.261719 201.117188 112.722656 199.691406 C 113.46875 204.527344 112.25 207.6875 110 210.058594 Z M 127.027344 214.320312 C 128.429688 214.171875 130.050781 214.429688 131.964844 215.222656 C 130.183594 217.25 128.4375 219.292969 126.71875 221.347656 C 126.734375 220.085938 126.765625 218.800781 126.84375 217.515625 C 126.90625 216.441406 126.96875 215.371094 127.027344 214.320312 Z M 83.917969 284.324219 C 84.417969 280.609375 84.359375 276.445312 84.132812 272.132812 C 84 266.671875 83.511719 260.964844 83.300781 255.828125 C 83.292969 255.1875 83.308594 254.585938 83.3125 253.964844 C 84.0625 252.28125 84.886719 250.816406 85.75 249.761719 C 84.933594 250.019531 84.15625 250.378906 83.402344 250.789062 C 83.554688 247.828125 83.894531 245.214844 84.578125 243.273438 C 85.128906 244.964844 87.566406 241.527344 90.542969 237.726562 C 93.480469 238.761719 96.496094 234.53125 99.53125 229.652344 C 100.796875 229.863281 101.476562 231.820312 101.175781 236.589844 C 100.765625 237.003906 100.523438 237.25 100.523438 237.25 C 100.734375 237.246094 100.925781 237.222656 101.128906 237.214844 C 101.109375 237.484375 101.097656 237.730469 101.066406 238.019531 C 101.21875 237.746094 101.328125 237.472656 101.472656 237.195312 C 106.574219 236.902344 109.863281 235.085938 112.390625 232.640625 C 115.101562 230.0625 116.792969 226.640625 118.375 223.398438 C 119.78125 220.511719 121.195312 217.828125 123.09375 216.128906 C 123.019531 216.339844 122.953125 216.527344 122.875 216.738281 C 122.027344 219.25 121.269531 221.988281 120.441406 224.683594 C 119.710938 227.140625 118.984375 229.574219 118.292969 231.898438 C 117.003906 233.585938 115.726562 235.28125 114.476562 236.992188 C 114.113281 237.109375 113.796875 237.1875 113.546875 237.195312 C 113.53125 237.5625 113.582031 237.863281 113.652344 238.140625 C 102.695312 253.273438 93.28125 269.171875 85.398438 285.621094 C 84.855469 285.242188 84.375 284.796875 83.917969 284.324219 Z M 718.679688 289.507812 C 722.292969 295.550781 724.386719 302.296875 720.285156 304.316406 C 719.183594 298.078125 717.886719 291.90625 716.417969 285.804688 C 717.179688 286.992188 717.945312 288.222656 718.679688 289.507812 Z M 530.96875 70.96875 C 530.773438 70.890625 530.578125 70.808594 530.386719 70.730469 C 530.46875 70.710938 530.550781 70.707031 530.636719 70.679688 C 530.753906 70.777344 530.859375 70.871094 530.96875 70.96875 Z M 523.269531 64.574219 C 522.894531 64.292969 522.519531 64.023438 522.144531 63.738281 C 522.144531 63.738281 522.609375 64.105469 523.347656 64.6875 C 523.59375 65.042969 523.835938 65.410156 524.078125 65.789062 C 524.867188 67.007812 525.652344 68.265625 526.542969 69.21875 C 522.902344 67.820312 519.238281 66.476562 515.535156 65.207031 C 519.050781 60.136719 521.273438 61.75 523.269531 64.574219 Z M 377.464844 33.011719 C 376.523438 33.175781 375.976562 33.273438 375.976562 33.273438 C 375.574219 32.78125 375.472656 32.230469 375.496094 31.699219 C 376.1875 32.160156 376.867188 32.617188 377.464844 33.011719 Z M 370.632812 28.527344 C 370.632812 28.527344 371.472656 29.074219 372.632812 29.828125 C 371.929688 29.886719 371.234375 29.960938 370.535156 30.007812 C 370.578125 29.535156 370.613281 29.050781 370.632812 28.527344 Z M 204.453125 70.820312 C 203.761719 71.386719 203.09375 71.953125 202.417969 72.519531 C 202.257812 72.355469 202.144531 72.207031 201.96875 72.039062 C 202.816406 71.546875 203.640625 71.15625 204.453125 70.820312 Z M 184.726562 85.921875 C 186.726562 85.304688 188.707031 84.769531 190.617188 84.257812 C 188.84375 86.558594 187.714844 88.617188 187.59375 90.28125 L 187.21875 87.664062 C 187.21875 87.664062 185.046875 91.6875 182.601562 97.433594 C 180.113281 103.148438 177.769531 110.972656 176.71875 118.003906 C 178.347656 113.421875 181.625 109.167969 185.296875 105.230469 C 189.121094 101.449219 193.324219 97.980469 196.714844 94.65625 C 202.09375 89.75 205.601562 85.089844 202.832031 79.839844 C 204.941406 78.300781 205.46875 76.382812 203.554688 73.816406 C 206.753906 72.824219 209.285156 71.464844 211.496094 69.589844 C 215.015625 69.882812 217.871094 71.589844 219.757812 73.785156 C 218.53125 74.800781 217.222656 75.953125 215.921875 77.199219 C 210.160156 82.367188 204.757812 89.195312 206.042969 91.992188 C 208.671875 91.476562 211.113281 87.007812 214.257812 83.933594 C 217.332031 80.789062 220.773438 78.65625 224.582031 82.421875 C 232.914062 77.734375 229.65625 77.222656 225.816406 76.480469 C 226.097656 76.292969 226.351562 76.125 226.660156 75.917969 C 229.398438 74.175781 233.050781 71.855469 236.707031 69.535156 C 240.367188 67.152344 244.144531 65 247.003906 63.402344 C 249.859375 61.785156 251.769531 60.707031 251.769531 60.707031 C 256.765625 63.898438 253.257812 76.75 249.382812 77.15625 C 246.242188 78.066406 242.882812 79.921875 239.359375 81.992188 C 235.847656 84.082031 232.121094 86.234375 228.398438 88.308594 C 220.957031 92.507812 213.144531 95.277344 205.007812 93.074219 C 201.617188 98.429688 205.25 100.03125 207.132812 101.941406 C 209.070312 103.90625 209.179688 105.886719 199.722656 112.417969 C 186.089844 114.546875 173.289062 120.671875 161.628906 128.269531 C 162.054688 123.902344 164.597656 118.113281 166.789062 112.464844 C 170.132812 104.28125 172.910156 96.496094 165.847656 94.289062 C 165.847656 94.289062 164.347656 98.5 162.847656 102.710938 C 162.550781 103.515625 162.277344 104.328125 162.019531 105.125 C 158.488281 95.164062 171.992188 89.445312 184.726562 85.921875 Z M 151.828125 101.882812 C 153.339844 100.378906 154.628906 99.152344 155.5625 98.347656 C 156.484375 97.515625 157.015625 97.042969 157.015625 97.042969 L 161.917969 105.417969 C 161.554688 106.550781 161.222656 107.621094 160.953125 108.523438 C 160.472656 110.117188 160.152344 111.183594 160.152344 111.183594 C 157.742188 101.363281 145.765625 115.910156 142.859375 110.75 C 146.15625 107.488281 149.335938 104.339844 151.828125 101.882812 Z M 125.75 129.378906 C 125.75 129.378906 127.507812 127.210938 130.347656 124.152344 C 132.960938 121.292969 136.378906 117.503906 139.945312 113.703125 C 139.535156 114.328125 139.109375 114.980469 138.628906 115.714844 C 136.394531 119.269531 133.207031 123.800781 130.464844 128.648438 C 127.671875 133.457031 124.847656 138.195312 122.875 141.832031 C 120.964844 145.503906 119.6875 147.953125 119.6875 147.953125 L 113.457031 144.382812 C 114.5 143.105469 115.507812 141.871094 116.480469 140.695312 C 116.570312 140.644531 116.660156 140.59375 116.75 140.535156 C 117.976562 139.824219 119.203125 139.109375 120.121094 138.574219 C 121.0625 138.058594 121.6875 137.71875 121.6875 137.71875 C 121.386719 136.898438 121.097656 136.191406 120.816406 135.535156 C 123.699219 132.195312 125.878906 129.96875 127.007812 129.589844 Z M 65.808594 297.460938 C 71.40625 280.433594 69.957031 303.59375 76.554688 297.226562 C 78.109375 296.429688 79.320312 295.375 80.296875 294.125 C 80.382812 294.898438 80.425781 295.695312 80.414062 296.519531 C 78.066406 301.953125 75.898438 307.445312 73.875 312.976562 C 71.796875 313.894531 69.949219 313.144531 68.527344 311.152344 C 67.539062 309.769531 66.757812 307.808594 66.234375 305.449219 C 65.742188 303.105469 65.640625 300.382812 65.808594 297.460938 Z M 280.261719 717.65625 C 281.707031 718.0625 283.148438 718.476562 284.597656 718.863281 C 284.597656 719.035156 284.574219 719.171875 284.582031 719.351562 C 282.9375 718.917969 281.511719 718.335938 280.261719 717.65625 Z M 312.894531 725.03125 C 319.648438 726.179688 326.4375 727.078125 333.242188 727.773438 C 328.496094 730.984375 320.679688 728.769531 312.894531 725.03125 Z M 487.257812 714.949219 C 486.363281 715.105469 485.492188 715.214844 484.664062 715.21875 C 482.78125 715.179688 481.117188 714.804688 479.75 714.1875 C 477.289062 713.078125 475.867188 711.164062 475.691406 708.988281 C 479.429688 707.5625 483.148438 706.054688 486.839844 704.476562 C 486.226562 705.40625 485.839844 706.792969 485.789062 708.863281 C 486.339844 711.0625 487.785156 712.484375 489.855469 713.332031 C 488.921875 713.722656 488.050781 714.25 487.257812 714.949219 Z M 494.796875 703.511719 C 493.371094 703.203125 491.929688 702.871094 490.625 702.828125 C 494.1875 701.246094 497.734375 699.605469 501.246094 697.882812 C 502.5 704.78125 498.824219 704.398438 494.796875 703.511719 Z M 494.796875 703.511719 " fill-opacity="1" fill-rule="nonzero"/></g><path fill="#bf001d" d="M 445.074219 719.011719 C 445.074219 720.351562 445.074219 721.269531 445.074219 721.269531 C 445.347656 720.421875 445.300781 719.683594 445.074219 719.011719 Z M 445.074219 719.011719 " fill-opacity="1" fill-rule="nonzero"/><path fill="#004b8b" d="M 228.246094 305.96875 L 312.203125 295.4375 L 433.652344 295.4375 L 512.308594 305.898438 L 584 676.050781 L 157.554688 676.609375 L 228.246094 305.96875 " fill-opacity="1" fill-rule="nonzero"/><path fill="#0668a1" d="M 372.898438 360.289062 C 424.964844 360.289062 467.179688 333.921875 467.179688 301.394531 C 467.179688 300.890625 467.136719 300.386719 467.121094 299.886719 L 433.660156 295.4375 L 312.203125 295.4375 L 278.683594 299.640625 C 278.660156 300.226562 278.613281 300.804688 278.613281 301.394531 C 278.613281 333.921875 320.824219 360.289062 372.898438 360.289062 " fill-opacity="1" fill-rule="nonzero"/><path fill="#4d3c35" d="M 333.214844 142.484375 C 333.214844 161.664062 317.675781 177.21875 298.503906 177.21875 C 279.335938 177.21875 263.796875 161.664062 263.796875 142.484375 C 263.796875 123.304688 279.335938 107.757812 298.503906 107.757812 C 317.675781 107.757812 333.214844 123.304688 333.214844 142.484375 " fill-opacity="1" fill-rule="nonzero"/><path fill="#4d3c35" d="M 356.199219 190.765625 C 356.199219 209.945312 340.660156 225.492188 321.488281 225.492188 C 302.320312 225.492188 286.78125 209.945312 286.78125 190.765625 C 286.78125 171.585938 302.320312 156.039062 321.488281 156.039062 C 340.660156 156.039062 356.199219 171.585938 356.199219 190.765625 " fill-opacity="1" fill-rule="nonzero"/><path fill="#4d3c35" d="M 351.15625 190.765625 L 350.464844 190.765625 C 350.460938 200.164062 346.65625 208.667969 340.496094 214.832031 C 334.335938 220.992188 325.839844 224.800781 316.441406 224.800781 C 307.046875 224.800781 298.546875 220.992188 292.390625 214.832031 C 286.230469 208.667969 282.425781 200.164062 282.421875 190.765625 C 282.425781 181.363281 286.230469 172.859375 292.390625 166.699219 C 298.546875 160.535156 307.046875 156.730469 316.441406 156.730469 C 325.839844 156.730469 334.335938 160.535156 340.496094 166.699219 C 346.65625 172.859375 350.460938 181.363281 350.464844 190.765625 L 351.847656 190.765625 C 351.84375 171.199219 335.996094 155.347656 316.441406 155.347656 C 296.890625 155.347656 281.042969 171.199219 281.039062 190.765625 C 281.042969 210.328125 296.890625 226.183594 316.441406 226.183594 C 335.996094 226.183594 351.84375 210.328125 351.847656 190.765625 L 351.15625 190.765625 " fill-opacity="1" fill-rule="nonzero"/><path fill="#4d3c35" d="M 440.476562 35.417969 C 440.476562 54.597656 424.933594 70.152344 405.765625 70.152344 C 386.59375 70.152344 371.054688 54.597656 371.054688 35.417969 C 371.054688 16.238281 386.59375 0.691406 405.765625 0.691406 C 424.933594 0.691406 440.476562 16.238281 440.476562 35.417969 " fill-opacity="1" fill-rule="nonzero"/><path fill="#4d3c35" d="M 444.574219 35.417969 L 443.882812 35.417969 C 443.882812 44.820312 440.078125 53.324219 433.917969 59.484375 C 427.757812 65.648438 419.261719 69.453125 409.863281 69.457031 C 400.46875 69.453125 391.964844 65.648438 385.804688 59.484375 C 379.652344 53.324219 375.84375 44.820312 375.84375 35.417969 C 375.84375 26.019531 379.652344 17.515625 385.804688 11.351562 C 391.964844 5.191406 400.46875 1.382812 409.863281 1.382812 C 419.261719 1.382812 427.757812 5.191406 433.917969 11.351562 C 440.078125 17.515625 443.882812 26.019531 443.882812 35.417969 L 445.265625 35.417969 C 445.265625 15.855469 429.417969 0 409.863281 0 C 390.3125 0 374.460938 15.855469 374.460938 35.417969 C 374.460938 54.980469 390.3125 70.835938 409.863281 70.84375 C 429.417969 70.835938 445.265625 54.980469 445.265625 35.417969 L 444.574219 35.417969 " fill-opacity="1" fill-rule="nonzero"/><path fill="#4d3c35" d="M 384.042969 40.1875 C 384.042969 59.367188 368.503906 74.914062 349.335938 74.914062 C 330.167969 74.914062 314.628906 59.367188 314.628906 40.1875 C 314.628906 21.007812 330.167969 5.453125 349.335938 5.453125 C 368.503906 5.453125 384.042969 21.007812 384.042969 40.1875 " fill-opacity="1" fill-rule="nonzero"/><path fill="#4d3c35" d="M 504.875 35.417969 C 504.875 54.597656 489.332031 70.152344 470.160156 70.152344 C 450.992188 70.152344 435.453125 54.597656 435.453125 35.417969 C 435.453125 16.238281 450.992188 0.691406 470.160156 0.691406 C 489.332031 0.691406 504.875 16.238281 504.875 35.417969 " fill-opacity="1" fill-rule="nonzero"/><path fill="#4d3c35" d="M 532.3125 70.152344 C 532.3125 89.332031 516.773438 104.878906 497.601562 104.878906 C 478.429688 104.878906 462.890625 89.332031 462.890625 70.152344 C 462.890625 50.964844 478.429688 35.417969 497.601562 35.417969 C 516.773438 35.417969 532.3125 50.964844 532.3125 70.152344 " fill-opacity="1" fill-rule="nonzero"/><path fill="#4d3c35" d="M 534.554688 73.027344 L 533.863281 73.027344 C 533.863281 82.425781 530.058594 90.9375 523.898438 97.09375 C 517.738281 103.253906 509.242188 107.0625 499.84375 107.066406 C 490.449219 107.0625 481.945312 103.253906 475.792969 97.09375 C 469.632812 90.9375 465.824219 82.425781 465.824219 73.027344 C 465.824219 63.625 469.632812 55.121094 475.792969 48.960938 C 481.945312 42.796875 490.449219 38.992188 499.84375 38.992188 C 509.242188 38.992188 517.738281 42.796875 523.898438 48.960938 C 530.058594 55.121094 533.863281 63.625 533.863281 73.027344 L 535.246094 73.027344 C 535.246094 53.464844 519.394531 37.609375 499.84375 37.609375 C 480.292969 37.609375 464.441406 53.464844 464.441406 73.027344 C 464.441406 92.589844 480.292969 108.445312 499.84375 108.449219 C 519.394531 108.445312 535.246094 92.589844 535.246094 73.027344 L 534.554688 73.027344 " fill-opacity="1" fill-rule="nonzero"/><path fill="#4d3c35" d="M 543.5 109.644531 C 543.5 128.824219 527.960938 144.371094 508.792969 144.371094 C 489.621094 144.371094 474.082031 128.824219 474.082031 109.644531 C 474.082031 90.460938 489.621094 74.914062 508.792969 74.914062 C 527.960938 74.914062 543.5 90.460938 543.5 109.644531 " fill-opacity="1" fill-rule="nonzero"/><path fill="#4d3c35" d="M 543.5 115.03125 L 542.808594 115.03125 C 542.808594 124.429688 539.003906 132.933594 532.847656 139.097656 C 526.691406 145.257812 518.1875 149.0625 508.792969 149.070312 C 499.398438 149.0625 490.898438 145.257812 484.738281 139.097656 C 478.578125 132.933594 474.777344 124.429688 474.777344 115.03125 C 474.777344 105.628906 478.578125 97.125 484.738281 90.964844 C 490.898438 84.800781 499.398438 80.996094 508.792969 80.988281 C 518.1875 80.996094 526.691406 84.800781 532.847656 90.964844 C 539.003906 97.125 542.808594 105.628906 542.808594 115.03125 L 544.191406 115.03125 C 544.191406 95.464844 528.34375 79.609375 508.792969 79.605469 C 489.238281 79.609375 473.390625 95.464844 473.390625 115.03125 C 473.390625 134.59375 489.238281 150.449219 508.792969 150.449219 C 528.34375 150.449219 544.191406 134.59375 544.191406 115.03125 L 543.5 115.03125 " fill-opacity="1" fill-rule="nonzero"/><path fill="#4d3c35" d="M 525.726562 154.351562 C 525.726562 173.53125 510.179688 189.082031 491.011719 189.082031 C 471.839844 189.082031 456.304688 173.53125 456.304688 154.351562 C 456.304688 135.171875 471.839844 119.625 491.011719 119.625 C 510.179688 119.625 525.726562 135.171875 525.726562 154.351562 " fill-opacity="1" fill-rule="nonzero"/><path fill="#4d3c35" d="M 349.335938 84.898438 C 349.335938 104.070312 333.796875 119.625 314.628906 119.625 C 295.453125 119.625 279.914062 104.070312 279.914062 84.898438 C 279.914062 65.710938 295.453125 50.164062 314.628906 50.164062 C 333.796875 50.164062 349.335938 65.710938 349.335938 84.898438 " fill-opacity="1" fill-rule="nonzero"/><path fill="#4d3c35" d="M 346.910156 88.59375 L 346.21875 88.59375 C 346.21875 98 342.414062 106.503906 336.253906 112.667969 C 330.097656 118.824219 321.597656 122.636719 312.203125 122.636719 C 302.804688 122.636719 294.300781 118.824219 288.148438 112.667969 C 281.988281 106.503906 278.183594 98 278.183594 88.59375 C 278.183594 79.195312 281.988281 70.691406 288.148438 64.527344 C 294.300781 58.371094 302.804688 54.5625 312.203125 54.5625 C 321.597656 54.5625 330.097656 58.371094 336.253906 64.527344 C 342.414062 70.691406 346.21875 79.195312 346.21875 88.59375 L 347.601562 88.59375 C 347.601562 69.039062 331.753906 53.175781 312.203125 53.175781 C 292.648438 53.175781 276.800781 69.039062 276.800781 88.59375 C 276.800781 108.160156 292.648438 124.019531 312.203125 124.019531 C 331.753906 124.019531 347.601562 108.160156 347.601562 88.59375 L 346.910156 88.59375 " fill-opacity="1" fill-rule="nonzero"/><path fill="#f8c3ac" d="M 312.203125 193.355469 L 312.203125 306.617188 L 433.652344 306.617188 L 433.652344 257.050781 L 312.203125 193.355469 " fill-opacity="1" fill-rule="nonzero"/><path fill="#f8c3ac" d="M 404.101562 41.128906 C 451.765625 34.25 506.59375 64.789062 504.832031 143.425781 C 504.355469 164.675781 501.945312 207.160156 502.335938 228.410156 C 502.644531 245.742188 500.9375 279.976562 469.101562 289.257812 C 455.984375 293.085938 445.59375 294.804688 414.980469 296.894531 L 312.203125 193.355469 C 312.203125 193.355469 306.355469 55.21875 404.101562 41.128906 " fill-opacity="1" fill-rule="nonzero"/><path fill="#4d3c35" d="M 453.261719 185.703125 L 452.789062 225.171875 L 454.175781 225.1875 L 454.644531 185.722656 " fill-opacity="1" fill-rule="nonzero"/><path fill="#4d3c35" d="M 406.546875 203.761719 C 406.167969 208.089844 408.226562 212.003906 411.132812 212.492188 C 414.046875 212.980469 416.710938 209.863281 417.089844 205.527344 C 417.460938 201.191406 415.410156 197.277344 412.496094 196.792969 C 409.582031 196.304688 406.921875 199.425781 406.546875 203.761719 " fill-opacity="1" fill-rule="nonzero"/><path fill="#4d3c35" d="M 463.867188 205.367188 C 463.488281 209.699219 465.546875 213.613281 468.453125 214.101562 C 471.367188 214.585938 474.03125 211.472656 474.40625 207.136719 C 474.78125 202.804688 472.722656 198.890625 469.816406 198.402344 C 466.902344 197.917969 464.238281 201.03125 463.867188 205.367188 " fill-opacity="1" fill-rule="nonzero"/><path fill="#4d3c35" d="M 411.421875 239.003906 C 411.433594 239.066406 411.636719 241.9375 413.464844 244.871094 C 414.382812 246.335938 415.707031 247.816406 417.617188 248.921875 C 419.519531 250.027344 421.996094 250.753906 425.15625 250.753906 C 426.644531 250.753906 428.285156 250.589844 430.097656 250.238281 L 429.835938 248.882812 C 428.101562 249.21875 426.542969 249.367188 425.15625 249.367188 C 422.207031 249.363281 419.996094 248.703125 418.308594 247.726562 C 415.785156 246.261719 414.414062 244.066406 413.65625 242.207031 C 413.285156 241.28125 413.070312 240.445312 412.945312 239.84375 C 412.886719 239.539062 412.847656 239.304688 412.832031 239.136719 L 412.808594 238.953125 L 412.804688 238.902344 L 411.425781 239.003906 " fill-opacity="1" fill-rule="nonzero"/><path fill="#004b8b" d="M 635.402344 401.011719 C 672.246094 464.90625 688.152344 548.910156 691.574219 572.816406 C 702.082031 646.351562 609.265625 686.703125 584 665.175781 C 530.386719 619.503906 518.964844 470.84375 508.710938 403.710938 C 497.90625 332.96875 594.503906 330.082031 635.402344 401.011719 " fill-opacity="1" fill-rule="nonzero"/><path fill="#004b8b" d="M 106.152344 401.011719 C 69.308594 464.90625 53.402344 548.910156 49.988281 572.816406 C 39.472656 646.351562 132.289062 686.703125 157.554688 665.175781 C 211.171875 619.503906 222.589844 470.84375 232.847656 403.710938 C 243.65625 332.96875 147.050781 330.082031 106.152344 401.011719 " fill-opacity="1" fill-rule="nonzero"/><path fill="#004b8b" d="M 635.402344 401.011719 C 594.503906 330.082031 497.90625 332.96875 508.710938 403.710938 C 512.367188 427.636719 516.171875 461.917969 521.980469 498.203125 L 674.964844 498.203125 C 665.996094 467.097656 653.121094 431.734375 635.402344 401.011719 " fill-opacity="1" fill-rule="nonzero"/><path fill="#004b8b" d="M 106.152344 401.011719 C 88.441406 431.734375 75.566406 467.097656 66.589844 498.203125 L 219.578125 498.203125 C 225.386719 461.917969 229.191406 427.636719 232.847656 403.710938 C 243.65625 332.96875 147.050781 330.082031 106.152344 401.011719 " fill-opacity="1" fill-rule="nonzero"/><path fill="#004b8b" d="M 49.988281 572.816406 C 49.988281 572.816406 31.773438 670.089844 66.234375 676.910156 L 355.527344 675.664062 C 359.222656 661.570312 352.222656 590.753906 325.199219 578.625 C 262.410156 550.445312 49.988281 572.816406 49.988281 572.816406 " fill-opacity="1" fill-rule="nonzero"/><path fill="#4d3c35" d="M 180.015625 564.125 L 122.433594 562.6875 L 122.402344 564.070312 L 179.980469 565.507812 " fill-opacity="1" fill-rule="nonzero"/><path fill="#004b8b" d="M 506.132812 305.6875 C 544.332031 305.6875 613.328125 330.832031 655.070312 441.128906 L 513.378906 462.984375 L 506.132812 305.6875 " fill-opacity="1" fill-rule="nonzero"/><path fill="#004b8b" d="M 235.425781 305.6875 C 197.226562 305.6875 128.234375 330.832031 86.488281 441.128906 L 228.179688 462.984375 L 235.425781 305.6875 " fill-opacity="1" fill-rule="nonzero"/><path fill="#004b8b" d="M 691.574219 572.816406 C 691.574219 572.816406 709.785156 670.089844 675.328125 676.910156 L 386.027344 676.375 C 382.335938 662.285156 389.332031 590.753906 416.359375 578.625 C 479.152344 550.445312 691.574219 572.816406 691.574219 572.816406 " fill-opacity="1" fill-rule="nonzero"/><path fill="#4d3c35" d="M 209.503906 428.488281 L 213.65625 404.683594 L 212.289062 404.445312 L 208.140625 428.25 " fill-opacity="1" fill-rule="nonzero"/><path fill="#4d3c35" d="M 533.785156 428.261719 L 530.496094 407.816406 L 529.128906 408.039062 L 532.425781 428.476562 " fill-opacity="1" fill-rule="nonzero"/><g clip-path="url(#4c10088018)"><path fill="#4d3c35" d="M 588.449219 676.523438 C 588.449219 676.523438 593.632812 625.660156 643.617188 630.84375 C 658.199219 632.351562 683.007812 645.296875 685.953125 676.609375 L 588.449219 676.523438 " fill-opacity="1" fill-rule="nonzero"/></g><path fill="#4d3c35" d="M 564.960938 566.273438 L 626.214844 564.070312 L 626.164062 562.6875 L 564.914062 564.886719 " fill-opacity="1" fill-rule="nonzero"/><path fill="#4d3c35" d="M 384.042969 140.382812 C 384.042969 159.566406 368.503906 175.113281 349.335938 175.113281 C 330.167969 175.113281 314.628906 159.566406 314.628906 140.382812 C 314.628906 121.203125 330.167969 105.65625 349.335938 105.65625 C 368.503906 105.65625 384.042969 121.203125 384.042969 140.382812 " fill-opacity="1" fill-rule="nonzero"/><path fill="#4d3c35" d="M 387.746094 140.382812 L 387.054688 140.382812 C 387.054688 149.785156 383.25 158.292969 377.089844 164.453125 C 370.929688 170.613281 362.433594 174.421875 353.035156 174.421875 C 343.640625 174.421875 335.136719 170.613281 328.984375 164.453125 C 322.824219 158.292969 319.019531 149.785156 319.015625 140.382812 C 319.019531 130.980469 322.824219 122.480469 328.984375 116.316406 C 335.136719 110.160156 343.640625 106.347656 353.035156 106.347656 C 362.433594 106.347656 370.929688 110.160156 377.089844 116.316406 C 383.25 122.480469 387.054688 130.980469 387.054688 140.382812 L 388.4375 140.382812 C 388.4375 120.824219 372.589844 104.964844 353.035156 104.964844 C 333.484375 104.964844 317.636719 120.824219 317.632812 140.382812 C 317.636719 159.945312 333.484375 175.808594 353.035156 175.808594 C 372.589844 175.808594 388.4375 159.945312 388.4375 140.382812 L 387.746094 140.382812 " fill-opacity="1" fill-rule="nonzero"/><path fill="#4d3c35" d="M 374.609375 105.65625 C 374.609375 124.835938 359.070312 140.382812 339.902344 140.382812 C 320.734375 140.382812 305.1875 124.835938 305.1875 105.65625 C 305.1875 86.476562 320.734375 70.929688 339.902344 70.929688 C 359.070312 70.929688 374.609375 86.476562 374.609375 105.65625 " fill-opacity="1" fill-rule="nonzero"/><path fill="#4d3c35" d="M 399.308594 66.238281 C 399.308594 85.421875 383.761719 100.96875 364.59375 100.96875 C 345.425781 100.96875 329.886719 85.421875 329.886719 66.238281 C 329.886719 47.058594 345.425781 31.511719 364.59375 31.511719 C 383.761719 31.511719 399.308594 47.058594 399.308594 66.238281 " fill-opacity="1" fill-rule="nonzero"/><path fill="#4d3c35" d="M 418.757812 90.945312 C 418.757812 110.125 403.214844 125.671875 384.042969 125.671875 C 364.875 125.671875 349.335938 110.125 349.335938 90.945312 C 349.335938 71.765625 364.875 56.21875 384.042969 56.21875 C 403.214844 56.21875 418.757812 71.765625 418.757812 90.945312 " fill-opacity="1" fill-rule="nonzero"/><path fill="#4d3c35" d="M 443.210938 58.339844 C 443.210938 77.523438 427.671875 93.070312 408.503906 93.070312 C 389.332031 93.070312 373.796875 77.523438 373.796875 58.339844 C 373.796875 39.164062 389.332031 23.613281 408.503906 23.613281 C 427.671875 23.613281 443.210938 39.164062 443.210938 58.339844 " fill-opacity="1" fill-rule="nonzero"/><path fill="#4d3c35" d="M 477.925781 96.386719 C 477.925781 115.566406 462.386719 131.113281 443.210938 131.113281 C 424.046875 131.113281 408.503906 115.566406 408.503906 96.386719 C 408.503906 77.207031 424.046875 61.652344 443.210938 61.652344 C 462.386719 61.652344 477.925781 77.207031 477.925781 96.386719 " fill-opacity="1" fill-rule="nonzero"/><path fill="#4d3c35" d="M 477.925781 99.414062 L 477.234375 99.414062 C 477.234375 108.8125 473.429688 117.316406 467.269531 123.480469 C 461.113281 129.640625 452.605469 133.445312 443.210938 133.453125 C 433.816406 133.445312 425.316406 129.640625 419.15625 123.480469 C 413.003906 117.316406 409.195312 108.8125 409.195312 99.414062 C 409.195312 90.011719 413.003906 81.507812 419.15625 75.347656 C 425.316406 69.183594 433.816406 65.378906 443.210938 65.378906 C 452.605469 65.378906 461.113281 69.183594 467.269531 75.347656 C 473.429688 81.507812 477.234375 90.011719 477.234375 99.414062 L 478.617188 99.414062 C 478.617188 79.847656 462.765625 63.992188 443.210938 63.992188 C 423.664062 63.992188 407.8125 79.847656 407.8125 99.414062 C 407.8125 118.976562 423.664062 134.832031 443.210938 134.835938 C 462.765625 134.832031 478.617188 118.976562 478.617188 99.414062 L 477.925781 99.414062 " fill-opacity="1" fill-rule="nonzero"/><path fill="#4d3c35" d="M 493.605469 61.652344 C 493.605469 80.832031 478.066406 96.386719 458.890625 96.386719 C 439.722656 96.386719 424.183594 80.832031 424.183594 61.652344 C 424.183594 42.472656 439.722656 26.925781 458.890625 26.925781 C 478.066406 26.925781 493.605469 42.472656 493.605469 61.652344 " fill-opacity="1" fill-rule="nonzero"/><path fill="#4d3c35" d="M 525.726562 105.65625 C 525.726562 124.835938 510.179688 140.382812 491.011719 140.382812 C 471.839844 140.382812 456.304688 124.835938 456.304688 105.65625 C 456.304688 86.476562 471.839844 70.929688 491.011719 70.929688 C 510.179688 70.929688 525.726562 86.476562 525.726562 105.65625 " fill-opacity="1" fill-rule="nonzero"/><path fill="#f8c3ac" d="M 349.335938 175.238281 C 349.335938 175.238281 342.1875 133.921875 312.265625 146.820312 C 301.585938 151.421875 287.582031 172.09375 312.203125 193.355469 L 349.335938 175.238281 " fill-opacity="1" fill-rule="nonzero"/><path fill="#f8c3ac" d="M 433.652344 306.617188 C 433.652344 321.535156 406.449219 333.632812 372.898438 333.632812 C 339.339844 333.632812 312.136719 321.535156 312.136719 306.617188 C 312.136719 291.695312 339.339844 279.597656 372.898438 279.597656 C 406.449219 279.597656 433.652344 291.695312 433.652344 306.617188 " fill-opacity="1" fill-rule="nonzero"/><path fill="#4d3c35" d="M 433.582031 294.75 L 399.230469 298.453125 L 399.382812 299.832031 L 433.730469 296.125 " fill-opacity="1" fill-rule="nonzero"/><path fill="#4d3c35" d="M 428.273438 168.296875 C 426.375 165.015625 422.832031 162.804688 418.769531 162.804688 C 414.707031 162.804688 411.160156 165.015625 409.265625 168.296875 L 410.464844 168.988281 C 412.125 166.121094 415.21875 164.191406 418.769531 164.191406 C 422.320312 164.191406 425.410156 166.121094 427.074219 168.988281 L 428.273438 168.296875 " fill-opacity="1" fill-rule="nonzero"/><path fill="#4d3c35" d="M 485.585938 168.296875 C 483.691406 165.015625 480.144531 162.804688 476.082031 162.804688 C 472.019531 162.804688 468.480469 165.015625 466.578125 168.296875 L 467.777344 168.988281 C 469.441406 166.121094 472.535156 164.191406 476.082031 164.191406 C 479.636719 164.191406 482.730469 166.121094 484.394531 168.988281 L 485.585938 168.296875 " fill-opacity="1" fill-rule="nonzero"/><path fill="#ffffff" d="M 591.808594 662.851562 L 682.59375 662.851562 L 682.59375 661.46875 L 591.808594 661.46875 Z M 591.808594 662.851562 " fill-opacity="1" fill-rule="nonzero"/><path fill="#ffffff" d="M 630.289062 662.160156 L 631.671875 662.160156 L 631.671875 630.660156 L 630.289062 630.660156 Z M 630.289062 662.160156 " fill-opacity="1" fill-rule="nonzero"/><path fill="#ffffff" d="M 337.113281 170.984375 C 338.070312 178.277344 332.933594 184.957031 325.644531 185.914062 C 318.359375 186.867188 311.683594 181.730469 310.726562 174.445312 C 309.769531 167.152344 314.910156 160.464844 322.191406 159.515625 C 329.480469 158.558594 336.160156 163.691406 337.113281 170.984375 " fill-opacity="1" fill-rule="nonzero"/><path fill="#ffffff" d="M 319.050781 175.640625 L 323.542969 199.792969 L 331.605469 198.734375 L 330.117188 172.859375 L 319.050781 175.640625 " fill-opacity="1" fill-rule="nonzero"/><path fill="#4d3c35" d="M 329.824219 172 L 329.140625 172.09375 C 329.167969 172.304688 329.175781 172.507812 329.175781 172.71875 C 329.175781 175.078125 327.425781 177.136719 325.023438 177.449219 C 324.816406 177.476562 324.605469 177.488281 324.402344 177.488281 C 322.039062 177.488281 319.988281 175.738281 319.675781 173.332031 C 319.648438 173.121094 319.628906 172.914062 319.628906 172.710938 C 319.628906 170.347656 321.382812 168.289062 323.785156 167.980469 L 324.007812 167.964844 C 324.726562 167.953125 326.011719 168.347656 327.070312 169.085938 C 328.144531 169.828125 328.984375 170.867188 329.140625 172.09375 L 329.824219 172 L 330.511719 171.914062 C 330.273438 170.15625 329.128906 168.828125 327.855469 167.945312 C 326.5625 167.070312 325.136719 166.589844 324.007812 166.578125 C 323.871094 166.578125 323.738281 166.589844 323.605469 166.605469 C 320.507812 167.011719 318.246094 169.65625 318.246094 172.710938 C 318.246094 172.972656 318.265625 173.246094 318.300781 173.515625 C 318.707031 176.613281 321.355469 178.871094 324.402344 178.871094 C 324.667969 178.871094 324.929688 178.855469 325.207031 178.824219 C 328.300781 178.414062 330.5625 175.769531 330.5625 172.71875 C 330.5625 172.457031 330.542969 172.183594 330.511719 171.914062 L 329.824219 172 " fill-opacity="1" fill-rule="nonzero"/><g clip-path="url(#82711106ec)"><path fill="#ffffff" d="M 325.902344 188.003906 C 325.910156 188.078125 326.183594 304.015625 405.246094 394.914062 C 415.992188 407.269531 425.964844 419.90625 433.242188 432.796875 C 440.519531 445.695312 445.09375 458.835938 445.09375 472.234375 C 445.085938 493.417969 433.6875 515.390625 402.945312 538.273438 C 372.207031 561.140625 322.171875 584.820312 245.1875 609.238281 C 220.453125 617.085938 184.9375 628.636719 155.578125 639.941406 C 140.898438 645.589844 127.757812 651.179688 118.257812 656.222656 C 113.507812 658.75 109.667969 661.136719 106.976562 663.355469 C 105.632812 664.46875 104.574219 665.539062 103.828125 666.585938 C 103.09375 667.636719 102.65625 668.679688 102.648438 669.734375 C 102.644531 671.0625 103.394531 672.261719 104.703125 673.171875 C 106.679688 674.554688 109.960938 675.550781 114.867188 676.246094 C 119.765625 676.9375 126.277344 677.304688 134.640625 677.304688 C 135.335938 677.304688 136.046875 677.300781 136.757812 677.300781 C 159.785156 677.132812 180.226562 668.453125 180.269531 668.433594 L 179.726562 667.160156 C 179.726562 667.160156 179.417969 667.289062 178.824219 667.527344 C 174.652344 669.171875 156.601562 675.777344 136.753906 675.917969 C 136.035156 675.917969 135.332031 675.921875 134.640625 675.921875 C 123.546875 675.921875 115.75 675.261719 110.808594 674.101562 C 108.332031 673.523438 106.578125 672.808594 105.503906 672.042969 C 104.421875 671.261719 104.042969 670.539062 104.03125 669.734375 C 104.03125 669.085938 104.320312 668.289062 104.957031 667.386719 C 106.15625 665.6875 108.550781 663.671875 111.898438 661.511719 C 123.632812 653.921875 146.957031 644.367188 172.375 635.148438 C 197.789062 625.917969 225.328125 616.992188 245.605469 610.554688 C 322.667969 586.105469 372.824219 562.402344 403.765625 539.382812 C 434.707031 516.382812 446.480469 493.957031 446.476562 472.234375 C 446.476562 458.519531 441.796875 445.144531 434.449219 432.121094 C 427.09375 419.09375 417.0625 406.394531 406.289062 394.003906 C 366.945312 348.785156 347.191406 297.273438 337.269531 257.066406 C 332.316406 236.960938 329.820312 219.683594 328.5625 207.441406 C 327.929688 201.316406 327.609375 196.453125 327.449219 193.121094 C 327.367188 191.457031 327.328125 190.175781 327.308594 189.308594 C 327.285156 188.445312 327.285156 188.003906 327.285156 188.003906 L 325.902344 188.003906 " fill-opacity="1" fill-rule="nonzero"/></g><path fill="#ffffff" d="M 449.894531 293.261719 C 444.191406 316.636719 434.652344 335.152344 426.511719 350.925781 C 418.386719 366.699219 411.605469 379.734375 411.59375 392.265625 C 411.589844 396.996094 412.570312 401.636719 414.808594 406.269531 L 416.054688 405.671875 C 413.90625 401.21875 412.976562 396.800781 412.972656 392.265625 C 412.960938 380.257812 419.589844 367.332031 427.742188 351.558594 C 435.878906 335.785156 445.484375 317.152344 451.242188 293.59375 L 449.894531 293.261719 " fill-opacity="1" fill-rule="nonzero"/><g clip-path="url(#9806f2230e)"><path fill="#4d3c35" d="M 557.355469 676.609375 L 184.207031 676.609375 C 175.425781 676.609375 168.15625 669.804688 167.566406 661.039062 L 153.152344 446.171875 C 152.503906 436.539062 160.136719 428.371094 169.792969 428.371094 L 571.769531 428.371094 C 581.417969 428.371094 589.058594 436.539062 588.410156 446.171875 L 573.996094 661.039062 C 573.40625 669.804688 566.128906 676.609375 557.355469 676.609375 " fill-opacity="1" fill-rule="nonzero"/></g><path fill="#ffffff" d="M 398.535156 557.402344 L 397.84375 557.390625 C 397.71875 571.644531 385.617188 583.144531 370.78125 583.144531 C 355.9375 583.144531 343.835938 571.644531 343.71875 557.390625 L 343.710938 557.167969 C 343.71875 550.015625 346.722656 543.535156 351.609375 538.828125 C 356.503906 534.125 363.269531 531.199219 370.78125 531.199219 C 378.285156 531.199219 385.054688 534.125 389.945312 538.828125 C 394.832031 543.535156 397.84375 550.015625 397.84375 557.164062 L 397.84375 557.402344 L 398.535156 557.402344 L 397.84375 557.390625 L 398.535156 557.402344 L 399.226562 557.394531 L 399.226562 557.164062 C 399.226562 549.621094 396.042969 542.777344 390.902344 537.832031 C 385.757812 532.878906 378.648438 529.816406 370.78125 529.816406 C 362.90625 529.816406 355.796875 532.878906 350.652344 537.832031 C 345.511719 542.777344 342.328125 549.621094 342.332031 557.167969 L 342.332031 557.40625 C 342.46875 572.460938 355.21875 584.527344 370.78125 584.527344 C 386.335938 584.527344 399.085938 572.460938 399.226562 557.40625 L 399.226562 557.394531 L 398.535156 557.402344 " fill-opacity="1" fill-rule="nonzero"/><g clip-path="url(#c10b356882)"><path fill="#4d3c35" d="M 34.96875 677.300781 L 715.339844 677.300781 L 715.339844 675.917969 L 34.96875 675.917969 Z M 34.96875 677.300781 " fill-opacity="1" fill-rule="nonzero"/></g><g fill="#ffffff" fill-opacity="1"><g transform="translate(219.936426, 426.115084)"><g><path d="M 9.296875 -6.875 C 10.078125 -6.707031 10.703125 -6.320312 11.171875 -5.71875 C 11.640625 -5.113281 11.875 -4.421875 11.875 -3.640625 C 11.875 -2.523438 11.484375 -1.640625 10.703125 -0.984375 C 9.921875 -0.328125 8.828125 0 7.421875 0 L 1.1875 0 L 1.1875 -13.40625 L 7.21875 -13.40625 C 8.582031 -13.40625 9.648438 -13.09375 10.421875 -12.46875 C 11.191406 -11.84375 11.578125 -10.992188 11.578125 -9.921875 C 11.578125 -9.140625 11.367188 -8.484375 10.953125 -7.953125 C 10.535156 -7.429688 9.984375 -7.070312 9.296875 -6.875 Z M 4.453125 -7.984375 L 6.59375 -7.984375 C 7.125 -7.984375 7.53125 -8.097656 7.8125 -8.328125 C 8.101562 -8.566406 8.25 -8.914062 8.25 -9.375 C 8.25 -9.832031 8.101562 -10.179688 7.8125 -10.421875 C 7.53125 -10.660156 7.125 -10.78125 6.59375 -10.78125 L 4.453125 -10.78125 Z M 6.859375 -2.640625 C 7.398438 -2.640625 7.820312 -2.757812 8.125 -3 C 8.425781 -3.25 8.578125 -3.613281 8.578125 -4.09375 C 8.578125 -4.5625 8.421875 -4.925781 8.109375 -5.1875 C 7.796875 -5.457031 7.363281 -5.59375 6.8125 -5.59375 L 4.453125 -5.59375 L 4.453125 -2.640625 Z M 6.859375 -2.640625 "/></g></g></g><g fill="#ffffff" fill-opacity="1"><g transform="translate(232.513212, 426.115084)"><g><path d="M 4.453125 -13.40625 L 4.453125 0 L 1.1875 0 L 1.1875 -13.40625 Z M 4.453125 -13.40625 "/></g></g></g><g fill="#ffffff" fill-opacity="1"><g transform="translate(238.143184, 426.115084)"><g><path d="M 10.078125 -9.171875 C 9.835938 -9.609375 9.488281 -9.945312 9.03125 -10.1875 C 8.582031 -10.425781 8.054688 -10.546875 7.453125 -10.546875 C 6.390625 -10.546875 5.539062 -10.195312 4.90625 -9.5 C 4.269531 -8.800781 3.953125 -7.875 3.953125 -6.71875 C 3.953125 -5.488281 4.285156 -4.523438 4.953125 -3.828125 C 5.617188 -3.128906 6.539062 -2.78125 7.71875 -2.78125 C 8.519531 -2.78125 9.195312 -2.984375 9.75 -3.390625 C 10.300781 -3.804688 10.703125 -4.394531 10.953125 -5.15625 L 6.8125 -5.15625 L 6.8125 -7.5625 L 13.921875 -7.5625 L 13.921875 -4.53125 C 13.679688 -3.707031 13.269531 -2.945312 12.6875 -2.25 C 12.101562 -1.550781 11.363281 -0.984375 10.46875 -0.546875 C 9.582031 -0.117188 8.582031 0.09375 7.46875 0.09375 C 6.144531 0.09375 4.960938 -0.191406 3.921875 -0.765625 C 2.890625 -1.347656 2.082031 -2.15625 1.5 -3.1875 C 0.914062 -4.21875 0.625 -5.394531 0.625 -6.71875 C 0.625 -8.039062 0.914062 -9.21875 1.5 -10.25 C 2.082031 -11.289062 2.882812 -12.101562 3.90625 -12.6875 C 4.9375 -13.269531 6.117188 -13.5625 7.453125 -13.5625 C 9.054688 -13.5625 10.40625 -13.171875 11.5 -12.390625 C 12.601562 -11.617188 13.332031 -10.546875 13.6875 -9.171875 Z M 10.078125 -9.171875 "/></g></g></g><g fill="#ffffff" fill-opacity="1"><g transform="translate(252.685689, 426.115084)"><g><path d="M 10.828125 -13.40625 L 10.828125 -10.78125 L 7.28125 -10.78125 L 7.28125 0 L 4.015625 0 L 4.015625 -10.78125 L 0.453125 -10.78125 L 0.453125 -13.40625 Z M 10.828125 -13.40625 "/></g></g></g><g fill="#ffffff" fill-opacity="1"><g transform="translate(263.964719, 426.115084)"><g><path d="M 8.015625 0 L 5.234375 -5.0625 L 4.453125 -5.0625 L 4.453125 0 L 1.1875 0 L 1.1875 -13.40625 L 6.65625 -13.40625 C 7.71875 -13.40625 8.617188 -13.21875 9.359375 -12.84375 C 10.109375 -12.476562 10.664062 -11.972656 11.03125 -11.328125 C 11.40625 -10.691406 11.59375 -9.976562 11.59375 -9.1875 C 11.59375 -8.289062 11.335938 -7.492188 10.828125 -6.796875 C 10.328125 -6.097656 9.585938 -5.601562 8.609375 -5.3125 L 11.703125 0 Z M 4.453125 -7.375 L 6.46875 -7.375 C 7.070312 -7.375 7.519531 -7.519531 7.8125 -7.8125 C 8.113281 -8.101562 8.265625 -8.515625 8.265625 -9.046875 C 8.265625 -9.554688 8.113281 -9.957031 7.8125 -10.25 C 7.519531 -10.539062 7.070312 -10.6875 6.46875 -10.6875 L 4.453125 -10.6875 Z M 4.453125 -7.375 "/></g></g></g><g fill="#ffffff" fill-opacity="1"><g transform="translate(276.407911, 426.115084)"><g><path d="M 7.515625 0.140625 C 6.253906 0.140625 5.097656 -0.148438 4.046875 -0.734375 C 3.003906 -1.328125 2.171875 -2.148438 1.546875 -3.203125 C 0.929688 -4.253906 0.625 -5.429688 0.625 -6.734375 C 0.625 -8.046875 0.929688 -9.222656 1.546875 -10.265625 C 2.171875 -11.316406 3.003906 -12.132812 4.046875 -12.71875 C 5.097656 -13.300781 6.253906 -13.59375 7.515625 -13.59375 C 8.773438 -13.59375 9.929688 -13.300781 10.984375 -12.71875 C 12.035156 -12.132812 12.863281 -11.316406 13.46875 -10.265625 C 14.070312 -9.222656 14.375 -8.046875 14.375 -6.734375 C 14.375 -5.429688 14.066406 -4.253906 13.453125 -3.203125 C 12.847656 -2.148438 12.019531 -1.328125 10.96875 -0.734375 C 9.925781 -0.148438 8.773438 0.140625 7.515625 0.140625 Z M 7.515625 -2.84375 C 8.585938 -2.84375 9.445312 -3.195312 10.09375 -3.90625 C 10.738281 -4.625 11.0625 -5.566406 11.0625 -6.734375 C 11.0625 -7.921875 10.738281 -8.867188 10.09375 -9.578125 C 9.445312 -10.285156 8.585938 -10.640625 7.515625 -10.640625 C 6.441406 -10.640625 5.582031 -10.285156 4.9375 -9.578125 C 4.289062 -8.878906 3.96875 -7.929688 3.96875 -6.734375 C 3.96875 -5.554688 4.289062 -4.613281 4.9375 -3.90625 C 5.582031 -3.195312 6.441406 -2.84375 7.515625 -2.84375 Z M 7.515625 -2.84375 "/></g></g></g><g fill="#ffffff" fill-opacity="1"><g transform="translate(291.408445, 426.115084)"><g><path d="M 13.171875 0 L 9.90625 0 L 4.453125 -8.265625 L 4.453125 0 L 1.1875 0 L 1.1875 -13.40625 L 4.453125 -13.40625 L 9.90625 -5.09375 L 9.90625 -13.40625 L 13.171875 -13.40625 Z M 13.171875 0 "/></g></g></g><g fill="#ffffff" fill-opacity="1"><g transform="translate(305.760104, 426.115084)"><g><path d="M 4.453125 -13.40625 L 4.453125 0 L 1.1875 0 L 1.1875 -13.40625 Z M 4.453125 -13.40625 "/></g></g></g><g fill="#ffffff" fill-opacity="1"><g transform="translate(311.390076, 426.115084)"><g><path d="M 0.625 -6.71875 C 0.625 -8.039062 0.910156 -9.21875 1.484375 -10.25 C 2.054688 -11.289062 2.851562 -12.101562 3.875 -12.6875 C 4.90625 -13.269531 6.070312 -13.5625 7.375 -13.5625 C 8.957031 -13.5625 10.316406 -13.140625 11.453125 -12.296875 C 12.585938 -11.453125 13.347656 -10.304688 13.734375 -8.859375 L 10.140625 -8.859375 C 9.867188 -9.421875 9.488281 -9.847656 9 -10.140625 C 8.507812 -10.429688 7.953125 -10.578125 7.328125 -10.578125 C 6.328125 -10.578125 5.515625 -10.226562 4.890625 -9.53125 C 4.265625 -8.832031 3.953125 -7.894531 3.953125 -6.71875 C 3.953125 -5.550781 4.265625 -4.613281 4.890625 -3.90625 C 5.515625 -3.207031 6.328125 -2.859375 7.328125 -2.859375 C 7.953125 -2.859375 8.507812 -3.003906 9 -3.296875 C 9.488281 -3.597656 9.867188 -4.023438 10.140625 -4.578125 L 13.734375 -4.578125 C 13.347656 -3.128906 12.585938 -1.988281 11.453125 -1.15625 C 10.316406 -0.320312 8.957031 0.09375 7.375 0.09375 C 6.070312 0.09375 4.90625 -0.191406 3.875 -0.765625 C 2.851562 -1.347656 2.054688 -2.15625 1.484375 -3.1875 C 0.910156 -4.21875 0.625 -5.394531 0.625 -6.71875 Z M 0.625 -6.71875 "/></g></g></g><g fill="#ffffff" fill-opacity="1"><g transform="translate(325.93258, 426.115084)"><g><path d="M 9.53125 -2.375 L 4.53125 -2.375 L 3.71875 0 L 0.3125 0 L 5.15625 -13.40625 L 8.9375 -13.40625 L 13.78125 0 L 10.328125 0 Z M 8.6875 -4.890625 L 7.03125 -9.796875 L 5.390625 -4.890625 Z M 8.6875 -4.890625 "/></g></g></g></svg>