<svg xmlns="http://www.w3.org/2000/svg" xmlns:xlink="http://www.w3.org/1999/xlink" width="70" zoomAndPan="magnify" viewBox="0 0 52.5 52.499999" height="70" preserveAspectRatio="xMidYMid meet" version="1.0"><defs><clipPath id="21e651000f"><path d="M 2.324219 4.203125 L 33 4.203125 L 33 46.953125 L 2.324219 46.953125 Z M 2.324219 4.203125 " clip-rule="nonzero"/></clipPath><clipPath id="d5b1a4a87a"><path d="M 11 4.203125 L 43 4.203125 L 43 46.953125 L 11 46.953125 Z M 11 4.203125 " clip-rule="nonzero"/></clipPath><clipPath id="f237f43dc1"><path d="M 21 4.203125 L 51.824219 4.203125 L 51.824219 46.953125 L 21 46.953125 Z M 21 4.203125 " clip-rule="nonzero"/></clipPath></defs><g clip-path="url(#21e651000f)"><path fill="#ffffff" d="M 2.359375 4.253906 L 2.324219 46.886719 L 32.304688 25.613281 Z M 2.359375 4.253906 " fill-opacity="1" fill-rule="nonzero"/></g><g clip-path="url(#d5b1a4a87a)"><path fill="#ffffff" d="M 12.4375 4.878906 L 41.507812 25.613281 L 12.421875 46.242188 L 12.4375 4.878906 M 12.4375 4.203125 C 12.335938 4.203125 12.234375 4.21875 12.128906 4.269531 C 11.90625 4.390625 11.753906 4.625 11.753906 4.878906 L 11.738281 46.242188 C 11.738281 46.496094 11.875 46.734375 12.113281 46.851562 C 12.214844 46.902344 12.316406 46.917969 12.421875 46.917969 C 12.558594 46.917969 12.695312 46.867188 12.816406 46.785156 L 41.902344 26.152344 C 42.074219 26.019531 42.191406 25.816406 42.191406 25.613281 C 42.191406 25.390625 42.089844 25.191406 41.902344 25.070312 L 12.847656 4.339844 C 12.730469 4.253906 12.59375 4.203125 12.4375 4.203125 Z M 12.4375 4.203125 " fill-opacity="1" fill-rule="nonzero"/></g><g clip-path="url(#f237f43dc1)"><path fill="#ffffff" d="M 22.089844 4.914062 L 51.140625 25.644531 L 22.054688 46.277344 L 22.089844 4.914062 M 22.089844 4.238281 C 21.984375 4.238281 21.882812 4.253906 21.78125 4.304688 C 21.558594 4.421875 21.402344 4.660156 21.402344 4.914062 L 21.371094 46.277344 C 21.371094 46.53125 21.507812 46.765625 21.746094 46.886719 C 21.847656 46.9375 21.953125 46.953125 22.054688 46.953125 C 22.191406 46.953125 22.328125 46.902344 22.449219 46.816406 L 51.535156 26.1875 C 51.707031 26.050781 51.824219 25.847656 51.824219 25.644531 C 51.824219 25.425781 51.722656 25.222656 51.535156 25.105469 L 22.5 4.371094 C 22.378906 4.289062 22.226562 4.238281 22.089844 4.238281 Z M 22.089844 4.238281 " fill-opacity="1" fill-rule="nonzero"/></g></svg>