<svg xmlns="http://www.w3.org/2000/svg" xmlns:xlink="http://www.w3.org/1999/xlink" width="70" zoomAndPan="magnify" viewBox="0 0 52.5 52.499999" height="70" preserveAspectRatio="xMidYMid meet" version="1.0"><defs><clipPath id="9ba16ea8e2"><path d="M 12.113281 12.113281 L 40.613281 12.113281 L 40.613281 40.613281 L 12.113281 40.613281 Z M 12.113281 12.113281 " clip-rule="nonzero"/></clipPath></defs><g clip-path="url(#9ba16ea8e2)"><path fill="#ffffff" d="M 20.492188 12.113281 C 15.894531 12.113281 12.113281 15.886719 12.113281 20.492188 L 12.113281 32.234375 C 12.113281 36.832031 15.886719 40.613281 20.492188 40.613281 L 32.234375 40.613281 C 36.832031 40.613281 40.613281 36.835938 40.613281 32.234375 L 40.613281 20.492188 C 40.613281 15.894531 36.835938 12.113281 32.234375 12.113281 Z M 20.492188 14.703125 L 32.234375 14.703125 C 35.4375 14.703125 38.023438 17.289062 38.023438 20.492188 L 38.023438 32.234375 C 38.023438 35.4375 35.4375 38.023438 32.234375 38.023438 L 20.492188 38.023438 C 17.289062 38.023438 14.703125 35.4375 14.703125 32.234375 L 14.703125 20.492188 C 14.703125 17.289062 17.289062 14.703125 20.492188 14.703125 Z M 34.015625 17.539062 C 33.359375 17.539062 32.839844 18.058594 32.839844 18.710938 C 32.839844 19.363281 33.359375 19.886719 34.015625 19.886719 C 34.667969 19.886719 35.1875 19.363281 35.1875 18.710938 C 35.1875 18.058594 34.667969 17.539062 34.015625 17.539062 Z M 26.363281 18.589844 C 22.085938 18.589844 18.589844 22.085938 18.589844 26.363281 C 18.589844 30.636719 22.085938 34.136719 26.363281 34.136719 C 30.636719 34.136719 34.136719 30.636719 34.136719 26.363281 C 34.136719 22.085938 30.636719 18.589844 26.363281 18.589844 Z M 26.363281 21.179688 C 29.242188 21.179688 31.542969 23.484375 31.542969 26.363281 C 31.542969 29.242188 29.242188 31.542969 26.363281 31.542969 C 23.484375 31.542969 21.179688 29.242188 21.179688 26.363281 C 21.179688 23.484375 23.484375 21.179688 26.363281 21.179688 Z M 26.363281 21.179688 " fill-opacity="1" fill-rule="nonzero"/></g></svg>