<svg xmlns="http://www.w3.org/2000/svg" xmlns:xlink="http://www.w3.org/1999/xlink" width="1000" zoomAndPan="magnify" viewBox="0 0 750 624.749998" height="833" preserveAspectRatio="xMidYMid meet" version="1.0"><defs><clipPath id="2be811d9c5"><path d="M 0.148438 1 L 749.847656 1 L 749.847656 624.5 L 0.148438 624.5 Z M 0.148438 1 " clip-rule="nonzero"/></clipPath></defs><g clip-path="url(#2be811d9c5)"><path fill="#000000" d="M 209.285156 11.949219 C 207.4375 10.144531 204.636719 10.144531 202.785156 11.949219 C 200.980469 13.800781 200.980469 16.601562 202.785156 18.453125 C 204.347656 19.96875 206.597656 20.210938 208.371094 19.148438 L 259.875 70.683594 L 259.875 102.421875 L 308.320312 150.898438 L 430.929688 150.898438 L 458.242188 123.570312 L 740.773438 123.570312 C 741.289062 125.550781 743.089844 127.03125 745.230469 127.03125 C 747.757812 127.03125 749.832031 124.96875 749.832031 122.425781 C 749.832031 119.898438 747.773438 117.820312 745.230469 117.820312 C 743.089844 117.820312 741.289062 119.300781 740.773438 121.28125 L 457.308594 121.28125 L 429.996094 148.613281 L 309.269531 148.613281 L 262.160156 101.472656 L 262.160156 69.730469 L 209.980469 17.519531 C 211.042969 15.765625 210.816406 13.511719 209.285156 11.949219 M 13.878906 64.496094 C 11.351562 64.496094 9.277344 66.558594 9.277344 69.101562 C 9.277344 71.632812 11.335938 73.710938 13.878906 73.710938 C 16.019531 73.710938 17.820312 72.226562 18.335938 70.246094 L 162.46875 70.246094 L 190.714844 98.511719 L 190.714844 160.980469 L 289.824219 260.152344 L 423.171875 260.152344 L 451.613281 288.609375 L 601.199219 288.609375 C 601.710938 290.589844 603.515625 292.070312 605.65625 292.070312 C 608.183594 292.070312 610.257812 290.007812 610.257812 287.464844 C 610.257812 284.9375 608.199219 282.859375 605.65625 282.859375 C 603.515625 282.859375 601.710938 284.339844 601.199219 286.320312 L 452.546875 286.320312 L 424.105469 257.863281 L 290.757812 257.863281 L 192.984375 160.03125 L 192.984375 97.558594 L 163.402344 67.960938 L 18.335938 67.960938 C 17.820312 65.964844 16.019531 64.496094 13.878906 64.496094 Z M 258.90625 133.617188 C 257.054688 131.816406 254.257812 131.816406 252.40625 133.617188 C 250.601562 135.46875 250.601562 138.273438 252.40625 140.125 C 253.964844 141.636719 256.21875 141.878906 257.988281 140.816406 L 306.5 189.355469 L 444.644531 189.355469 L 474.578125 159.402344 L 573.835938 159.402344 C 574.351562 161.382812 576.152344 162.863281 578.292969 162.863281 C 580.820312 162.863281 582.898438 160.804688 582.898438 158.257812 C 582.898438 155.730469 580.835938 153.652344 578.292969 153.652344 C 576.152344 153.652344 574.351562 155.132812 573.835938 157.113281 L 473.644531 157.113281 L 443.710938 187.070312 L 307.464844 187.070312 L 259.632812 139.207031 C 260.660156 137.433594 260.421875 135.195312 258.90625 133.617188 Z M 327.421875 114.339844 C 324.898438 114.339844 322.820312 116.402344 322.820312 118.945312 C 322.820312 121.476562 324.878906 123.554688 327.421875 123.554688 C 329.5625 123.554688 331.367188 122.070312 331.882812 120.089844 L 413.851562 120.089844 L 451.417969 82.503906 L 584.570312 82.503906 L 605.058594 62 L 701.4375 62 C 701.953125 63.980469 703.753906 65.464844 705.894531 65.464844 C 708.421875 65.464844 710.496094 63.402344 710.496094 60.859375 C 710.496094 58.328125 708.4375 56.253906 705.894531 56.253906 C 703.753906 56.253906 701.953125 57.734375 701.4375 59.714844 L 604.109375 59.714844 L 583.621094 80.214844 L 450.46875 80.214844 L 412.902344 117.804688 L 331.882812 117.804688 C 331.367188 115.824219 329.5625 114.339844 327.421875 114.339844 Z M 276.964844 5.507812 C 271.574219 0.175781 262.996094 0.175781 257.605469 5.507812 C 252.277344 10.902344 252.277344 19.484375 257.605469 24.878906 C 262.160156 29.390625 268.96875 30.082031 274.230469 26.988281 L 325.300781 78.089844 L 385.027344 78.089844 L 418.261719 44.832031 L 475.738281 44.832031 C 477.265625 50.726562 482.644531 55.109375 488.984375 55.109375 C 496.515625 55.109375 502.664062 48.957031 502.664062 41.417969 C 502.664062 33.882812 496.515625 27.730469 488.984375 27.730469 C 482.625 27.730469 477.265625 32.109375 475.738281 38.003906 L 415.429688 38.003906 L 382.195312 71.261719 L 328.148438 71.261719 L 279.074219 22.140625 C 282.164062 16.890625 281.457031 10.0625 276.964844 5.507812 Z M 13.878906 77.65625 C 6.347656 77.65625 0.199219 83.808594 0.199219 91.34375 C 0.199219 98.878906 6.347656 105.03125 13.878906 105.03125 C 20.238281 105.03125 25.597656 100.652344 27.125 94.757812 L 135.863281 94.757812 L 154.050781 112.957031 L 154.050781 169.433594 L 275.679688 291.136719 L 275.679688 372.09375 L 335.308594 431.761719 C 332.21875 437.027344 332.910156 443.839844 337.417969 448.398438 C 342.808594 453.726562 351.390625 453.726562 356.78125 448.398438 C 362.109375 443.003906 362.109375 434.417969 356.78125 429.023438 C 352.226562 424.515625 345.417969 423.824219 340.15625 426.914062 L 282.519531 369.242188 L 282.519531 288.285156 L 160.890625 166.585938 L 160.890625 110.105469 L 138.695312 87.898438 L 27.125 87.898438 C 25.597656 82.035156 20.238281 77.65625 13.878906 77.65625 Z M 515.667969 346.199219 C 518.195312 346.199219 520.273438 344.136719 520.273438 341.59375 C 520.273438 339.0625 518.210938 336.988281 515.667969 336.988281 C 513.527344 336.988281 511.726562 338.46875 511.210938 340.449219 L 451.46875 340.449219 L 414.867188 303.828125 L 307.191406 303.828125 L 307.191406 352.6875 L 349.601562 395.125 L 400.367188 395.125 C 400.878906 397.105469 402.683594 398.585938 404.824219 398.585938 C 407.351562 398.585938 409.425781 396.523438 409.425781 393.980469 C 409.425781 391.453125 407.367188 389.375 404.824219 389.375 C 402.683594 389.375 400.878906 390.855469 400.367188 392.835938 L 350.550781 392.835938 L 309.476562 351.738281 L 309.476562 306.113281 L 413.917969 306.113281 L 450.535156 342.734375 L 511.210938 342.734375 C 511.726562 344.71875 513.527344 346.199219 515.667969 346.199219 Z M 13.878906 116.871094 C 11.351562 116.871094 9.277344 118.929688 9.277344 121.476562 C 9.277344 124.003906 11.335938 126.082031 13.878906 126.082031 C 16.019531 126.082031 17.820312 124.601562 18.335938 122.617188 L 111.496094 122.617188 L 122.792969 133.925781 L 122.792969 177.132812 L 72.671875 227.296875 L 72.671875 371.851562 L 132.464844 431.679688 L 132.464844 499.0625 C 130.488281 499.578125 129.003906 501.382812 129.003906 503.523438 C 129.003906 506.050781 131.066406 508.128906 133.609375 508.128906 C 136.136719 508.128906 138.210938 506.066406 138.210938 503.523438 C 138.210938 501.382812 136.730469 499.578125 134.75 499.0625 L 134.75 430.730469 L 74.960938 370.902344 L 74.960938 228.234375 L 125.078125 178.082031 L 125.078125 132.972656 L 112.429688 120.316406 L 18.335938 120.316406 C 17.820312 118.351562 16.019531 116.871094 13.878906 116.871094 Z M 90.84375 172.914062 C 96.171875 167.519531 96.171875 158.933594 90.84375 153.539062 C 85.453125 148.210938 76.875 148.210938 71.484375 153.539062 C 66.976562 158.097656 66.285156 164.910156 69.375 170.175781 L 43.863281 195.703125 L 43.863281 395.382812 L 82.878906 434.417969 L 82.878906 537.167969 C 76.988281 538.695312 72.609375 544.074219 72.609375 550.421875 C 72.609375 557.957031 78.757812 564.109375 86.289062 564.109375 C 93.820312 564.109375 99.96875 557.957031 99.96875 550.421875 C 99.96875 544.058594 95.59375 538.695312 89.703125 537.167969 L 89.703125 431.585938 L 50.703125 392.5625 L 50.703125 198.550781 L 74.203125 175.039062 C 79.480469 178.132812 86.304688 177.421875 90.84375 172.914062 Z M 51.558594 432.648438 C 51.558594 430.121094 49.496094 428.042969 46.953125 428.042969 C 44.425781 428.042969 42.351562 430.101562 42.351562 432.648438 C 42.351562 434.789062 43.832031 436.59375 45.8125 437.109375 L 45.8125 514.683594 L 29.554688 530.949219 L 29.554688 615.113281 C 27.574219 615.628906 26.09375 617.429688 26.09375 619.574219 C 26.09375 622.101562 28.15625 624.179688 30.699219 624.179688 C 33.226562 624.179688 35.300781 622.117188 35.300781 619.574219 C 35.300781 617.429688 33.820312 615.628906 31.839844 615.113281 L 31.839844 531.882812 L 48.097656 515.617188 L 48.097656 437.109375 C 50.09375 436.59375 51.558594 434.789062 51.558594 432.648438 Z M 147.386719 220.566406 C 145.535156 218.761719 142.734375 218.761719 140.882812 220.566406 C 139.082031 222.417969 139.082031 225.222656 140.882812 227.074219 C 142.445312 228.585938 144.699219 228.828125 146.46875 227.765625 L 225.785156 307.128906 L 225.785156 385.863281 L 320.871094 481.007812 L 495.488281 481.007812 C 496 482.992188 497.804688 484.472656 499.945312 484.472656 C 502.472656 484.472656 504.546875 482.410156 504.546875 479.867188 C 504.546875 477.335938 502.488281 475.261719 499.945312 475.261719 C 497.804688 475.261719 496 476.742188 495.488281 478.722656 L 321.824219 478.722656 L 228.070312 384.914062 L 228.070312 306.179688 L 148.078125 226.140625 C 149.140625 224.382812 148.898438 222.144531 147.386719 220.566406 Z M 153.308594 200.757812 C 155.113281 198.90625 155.113281 196.105469 153.308594 194.253906 C 151.457031 192.449219 148.65625 192.449219 146.808594 194.253906 C 145.292969 195.8125 145.050781 198.070312 146.113281 199.839844 L 102.707031 243.273438 L 102.707031 352.65625 L 166.652344 416.640625 L 166.652344 564.09375 C 164.671875 564.609375 163.191406 566.414062 163.191406 568.554688 C 163.191406 571.082031 165.25 573.160156 167.792969 573.160156 C 170.320312 573.160156 172.398438 571.097656 172.398438 568.554688 C 172.398438 566.414062 170.917969 564.609375 168.9375 564.09375 L 168.9375 415.707031 L 104.992188 351.722656 L 104.992188 244.222656 L 147.738281 201.449219 C 149.496094 202.511719 151.746094 202.289062 153.308594 200.757812 Z M 175.375 281.683594 C 175.328125 271.570312 167.230469 263.484375 157.125 263.421875 C 147.015625 263.46875 138.9375 271.570312 138.871094 281.683594 C 138.921875 290.21875 144.683594 297.320312 152.550781 299.351562 L 152.550781 360.257812 L 194.285156 402.015625 L 194.285156 459.140625 C 186.417969 461.183594 180.652344 468.269531 180.605469 476.804688 C 180.652344 486.921875 188.75 495.003906 198.859375 495.070312 C 208.964844 495.019531 217.042969 486.921875 217.109375 476.804688 C 217.0625 468.269531 211.300781 461.167969 203.429688 459.140625 L 203.429688 398.230469 L 161.695312 356.472656 L 161.695312 299.351562 C 169.566406 297.320312 175.328125 290.21875 175.375 281.683594 Z M 13.878906 36.425781 C 11.351562 36.425781 9.277344 38.488281 9.277344 41.035156 C 9.277344 43.5625 11.335938 45.640625 13.878906 45.640625 C 16.019531 45.640625 17.820312 44.15625 18.335938 42.175781 L 180.605469 42.175781 L 224.753906 86.351562 L 224.753906 152.429688 L 300.511719 228.234375 L 477.007812 228.234375 C 477.523438 230.214844 479.328125 231.695312 481.46875 231.695312 C 483.996094 231.695312 486.070312 229.632812 486.070312 227.089844 C 486.070312 224.5625 484.011719 222.484375 481.46875 222.484375 C 479.328125 222.484375 477.523438 223.964844 477.007812 225.945312 L 301.445312 225.945312 L 227.023438 151.476562 L 227.023438 85.402344 L 181.539062 39.890625 L 18.335938 39.890625 C 17.820312 37.894531 16.019531 36.425781 13.878906 36.425781 Z M 13.878906 36.425781 " fill-opacity="1" fill-rule="nonzero"/></g></svg>