<svg xmlns="http://www.w3.org/2000/svg" xmlns:xlink="http://www.w3.org/1999/xlink" width="70" zoomAndPan="magnify" viewBox="0 0 52.5 52.499999" height="70" preserveAspectRatio="xMidYMid meet" version="1.0"><defs><clipPath id="36087eb1ec"><path d="M 18.148438 11.1875 L 34.648438 11.1875 L 34.648438 45.6875 L 18.148438 45.6875 Z M 18.148438 11.1875 " clip-rule="nonzero"/></clipPath></defs><g clip-path="url(#36087eb1ec)"><path fill="#ffffff" d="M 30.839844 16.910156 L 34.648438 16.910156 L 34.648438 11.238281 L 29.789062 11.238281 L 29.789062 11.261719 C 23.398438 11.492188 22.078125 15.027344 21.96875 18.769531 L 21.953125 18.769531 L 21.953125 22.703125 L 18.148438 22.703125 L 18.148438 28.382812 L 21.953125 28.382812 L 21.953125 45.640625 L 28.785156 45.640625 L 28.785156 28.382812 L 33.683594 28.382812 L 34.648438 22.703125 L 28.785156 22.703125 L 28.785156 19.179688 C 28.785156 17.929688 29.632812 16.910156 30.839844 16.910156 Z M 30.839844 16.910156 " fill-opacity="1" fill-rule="nonzero"/></g></svg>