<svg xmlns="http://www.w3.org/2000/svg" xmlns:xlink="http://www.w3.org/1999/xlink" width="70" zoomAndPan="magnify" viewBox="0 0 52.5 52.499999" height="70" preserveAspectRatio="xMidYMid meet" version="1.0"><defs><clipPath id="0f2fbf0f41"><path d="M 11.585938 16 L 39.335938 16 L 39.335938 36.242188 L 11.585938 36.242188 Z M 11.585938 16 " clip-rule="nonzero"/></clipPath></defs><g clip-path="url(#0f2fbf0f41)"><path fill="#ffffff" d="M 38.5625 19.484375 C 38.308594 18.097656 37.085938 17.085938 35.667969 16.769531 C 33.542969 16.328125 29.613281 16.011719 25.363281 16.011719 C 21.117188 16.011719 17.125 16.328125 15 16.769531 C 13.585938 17.085938 12.359375 18.03125 12.101562 19.484375 C 11.84375 21.066406 11.585938 23.277344 11.585938 26.117188 C 11.585938 28.960938 11.84375 31.171875 12.164062 32.75 C 12.425781 34.140625 13.648438 35.152344 15.0625 35.46875 C 17.316406 35.910156 21.179688 36.226562 25.429688 36.226562 C 29.679688 36.226562 33.542969 35.910156 35.796875 35.46875 C 37.210938 35.152344 38.433594 34.207031 38.695312 32.75 C 38.949219 31.171875 39.273438 28.898438 39.339844 26.117188 C 39.207031 23.277344 38.886719 21.066406 38.5625 19.484375 Z M 21.890625 30.539062 L 21.890625 21.695312 L 29.742188 26.117188 Z M 21.890625 30.539062 " fill-opacity="1" fill-rule="nonzero"/></g></svg>