<svg xmlns="http://www.w3.org/2000/svg" xmlns:xlink="http://www.w3.org/1999/xlink" width="90" zoomAndPan="magnify" viewBox="0 0 67.5 33.749999" height="45" preserveAspectRatio="xMidYMid meet" version="1.0"><defs><g/><clipPath id="75c750b8c4"><path d="M 51 4 L 52.902344 4 L 52.902344 6 L 51 6 Z M 51 4 " clip-rule="nonzero"/></clipPath><clipPath id="bd74452c08"><path d="M 14.652344 3.839844 L 52.902344 3.839844 L 52.902344 22 L 14.652344 22 Z M 14.652344 3.839844 " clip-rule="nonzero"/></clipPath></defs><path fill="#000000" d="M 50.59375 4.714844 L 50.867188 4.714844 L 50.867188 5.4375 L 51.058594 5.4375 L 51.058594 4.714844 L 51.335938 4.714844 L 51.335938 4.535156 L 50.59375 4.535156 L 50.59375 4.714844 " fill-opacity="1" fill-rule="nonzero"/><g clip-path="url(#75c750b8c4)"><path fill="#000000" d="M 52.011719 4.535156 L 51.824219 5.148438 L 51.628906 4.535156 L 51.375 4.535156 L 51.375 5.4375 L 51.558594 5.4375 L 51.558594 4.859375 L 51.742188 5.4375 L 51.90625 5.4375 L 52.078125 4.875 L 52.078125 5.4375 L 52.261719 5.4375 L 52.261719 4.535156 L 52.011719 4.535156 " fill-opacity="1" fill-rule="nonzero"/></g><g clip-path="url(#bd74452c08)"><path fill="#000000" d="M 43.089844 22 C 40.644531 22 38.554688 21.171875 36.714844 19.476562 C 35.582031 18.429688 34.644531 17.148438 33.785156 15.816406 C 32.921875 17.148438 31.984375 18.429688 30.847656 19.476562 C 28.875 21.296875 26.609375 22.117188 23.925781 21.988281 C 18.8125 21.964844 14.65625 17.902344 14.65625 12.917969 C 14.65625 7.917969 18.835938 3.847656 23.96875 3.847656 C 26.78125 3.847656 29.144531 4.785156 31.203125 6.707031 C 32.1875 7.632812 33.023438 8.703125 33.785156 9.824219 C 34.542969 8.703125 35.378906 7.632812 36.363281 6.707031 C 38.421875 4.785156 40.785156 3.847656 43.597656 3.847656 C 48.730469 3.847656 52.910156 7.917969 52.910156 12.917969 C 52.910156 17.902344 48.753906 21.964844 43.636719 21.988281 C 43.453125 21.996094 43.269531 22 43.089844 22 Z M 35.652344 12.796875 C 36.671875 14.460938 37.664062 16.007812 38.867188 17.117188 C 40.226562 18.371094 41.660156 18.886719 43.515625 18.789062 L 43.597656 18.785156 C 46.976562 18.785156 49.726562 16.152344 49.726562 12.917969 C 49.726562 9.683594 46.976562 7.050781 43.597656 7.050781 C 41.601562 7.050781 39.992188 7.683594 38.53125 9.050781 C 37.445312 10.070312 36.542969 11.378906 35.652344 12.796875 Z M 23.96875 7.050781 C 20.589844 7.050781 17.839844 9.683594 17.839844 12.917969 C 17.839844 16.152344 20.589844 18.785156 23.96875 18.785156 L 24.054688 18.789062 C 25.90625 18.886719 27.339844 18.371094 28.699219 17.117188 C 29.90625 16.007812 30.894531 14.460938 31.914062 12.796875 C 31.023438 11.378906 30.125 10.070312 29.035156 9.050781 C 27.574219 7.683594 25.964844 7.050781 23.96875 7.050781 Z M 23.96875 7.050781 " fill-opacity="1" fill-rule="nonzero"/></g><path fill="#000000" d="M 44.019531 11.753906 L 44.019531 10.019531 L 42.222656 10.019531 L 42.222656 11.753906 L 40.496094 11.753906 L 40.496094 13.550781 L 42.222656 13.550781 L 42.222656 15.300781 L 44.019531 15.300781 L 44.019531 13.550781 L 45.742188 13.550781 L 45.742188 11.753906 L 44.019531 11.753906 " fill-opacity="1" fill-rule="nonzero"/><path fill="#000000" d="M 21.386719 11.734375 L 27.058594 11.734375 L 27.058594 13.585938 L 21.386719 13.585938 Z M 21.386719 11.734375 " fill-opacity="1" fill-rule="nonzero"/><g fill="#000000" fill-opacity="1"><g transform="translate(18.146376, 28.683977)"><g><path d="M 3.375 -1.0625 L 1.515625 -1.0625 L 1.15625 0 L 0.03125 0 L 1.9375 -5.15625 L 2.921875 -5.15625 L 4.859375 0 L 3.734375 0 Z M 1.796875 -1.921875 L 3.078125 -1.921875 L 2.4375 -3.859375 Z M 1.796875 -1.921875 "/></g></g><g transform="translate(23.022684, 28.683977)"><g><path d="M 2.375 -1.890625 L 1.515625 -1.890625 L 1.515625 0 L 0.453125 0 L 0.453125 -5.15625 L 2.375 -5.15625 C 2.976562 -5.15625 3.445312 -5.019531 3.78125 -4.75 C 4.113281 -4.476562 4.28125 -4.09375 4.28125 -3.59375 C 4.28125 -3.238281 4.203125 -2.941406 4.046875 -2.703125 C 3.898438 -2.472656 3.671875 -2.289062 3.359375 -2.15625 L 4.46875 -0.046875 L 4.46875 0 L 3.328125 0 Z M 1.515625 -2.75 L 2.375 -2.75 C 2.644531 -2.75 2.851562 -2.816406 3 -2.953125 C 3.144531 -3.085938 3.21875 -3.273438 3.21875 -3.515625 C 3.21875 -3.753906 3.144531 -3.941406 3 -4.078125 C 2.863281 -4.222656 2.65625 -4.296875 2.375 -4.296875 L 1.515625 -4.296875 Z M 1.515625 -2.75 "/></g></g><g transform="translate(27.647745, 28.683977)"><g><path d="M 0.453125 0 L 0.453125 -5.15625 L 2.046875 -5.15625 C 2.492188 -5.15625 2.894531 -5.050781 3.25 -4.84375 C 3.613281 -4.644531 3.894531 -4.351562 4.09375 -3.96875 C 4.300781 -3.59375 4.40625 -3.164062 4.40625 -2.6875 L 4.40625 -2.453125 C 4.40625 -1.972656 4.304688 -1.546875 4.109375 -1.171875 C 3.910156 -0.804688 3.628906 -0.519531 3.265625 -0.3125 C 2.910156 -0.101562 2.507812 0 2.0625 0 Z M 1.515625 -4.296875 L 1.515625 -0.859375 L 2.03125 -0.859375 C 2.445312 -0.859375 2.765625 -0.992188 2.984375 -1.265625 C 3.203125 -1.535156 3.316406 -1.921875 3.328125 -2.421875 L 3.328125 -2.703125 C 3.328125 -3.222656 3.21875 -3.617188 3 -3.890625 C 2.78125 -4.160156 2.460938 -4.296875 2.046875 -4.296875 Z M 1.515625 -4.296875 "/></g></g><g transform="translate(32.357734, 28.683977)"><g><path d="M 4.359375 -5.15625 L 4.359375 -1.765625 C 4.359375 -1.191406 4.179688 -0.738281 3.828125 -0.40625 C 3.472656 -0.0820312 2.992188 0.078125 2.390625 0.078125 C 1.785156 0.078125 1.304688 -0.0820312 0.953125 -0.40625 C 0.597656 -0.726562 0.414062 -1.164062 0.40625 -1.71875 L 0.40625 -5.15625 L 1.46875 -5.15625 L 1.46875 -1.75 C 1.46875 -1.414062 1.546875 -1.171875 1.703125 -1.015625 C 1.867188 -0.859375 2.097656 -0.78125 2.390625 -0.78125 C 2.984375 -0.78125 3.285156 -1.09375 3.296875 -1.71875 L 3.296875 -5.15625 Z M 4.359375 -5.15625 "/></g></g><g transform="translate(37.127881, 28.683977)"><g><path d="M 1.59375 0 L 0.53125 0 L 0.53125 -5.15625 L 1.59375 -5.15625 Z M 1.59375 0 "/></g></g><g transform="translate(39.240476, 28.683977)"><g><path d="M 4.65625 0 L 3.59375 0 L 1.515625 -3.390625 L 1.515625 0 L 0.453125 0 L 0.453125 -5.15625 L 1.515625 -5.15625 L 3.59375 -1.75 L 3.59375 -5.15625 L 4.65625 -5.15625 Z M 4.65625 0 "/></g></g><g transform="translate(44.357414, 28.683977)"><g><path d="M 4.6875 -2.453125 C 4.6875 -1.953125 4.597656 -1.507812 4.421875 -1.125 C 4.242188 -0.738281 3.988281 -0.441406 3.65625 -0.234375 C 3.320312 -0.0234375 2.9375 0.078125 2.5 0.078125 C 2.070312 0.078125 1.691406 -0.0234375 1.359375 -0.234375 C 1.023438 -0.441406 0.765625 -0.734375 0.578125 -1.109375 C 0.398438 -1.492188 0.304688 -1.9375 0.296875 -2.4375 L 0.296875 -2.6875 C 0.296875 -3.195312 0.390625 -3.644531 0.578125 -4.03125 C 0.765625 -4.414062 1.023438 -4.707031 1.359375 -4.90625 C 1.691406 -5.113281 2.070312 -5.21875 2.5 -5.21875 C 2.925781 -5.21875 3.304688 -5.113281 3.640625 -4.90625 C 3.972656 -4.707031 4.226562 -4.414062 4.40625 -4.03125 C 4.59375 -3.644531 4.6875 -3.195312 4.6875 -2.6875 Z M 3.625 -2.6875 C 3.625 -3.226562 3.523438 -3.640625 3.328125 -3.921875 C 3.128906 -4.203125 2.851562 -4.34375 2.5 -4.34375 C 2.144531 -4.34375 1.867188 -4.203125 1.671875 -3.921875 C 1.484375 -3.648438 1.382812 -3.25 1.375 -2.71875 L 1.375 -2.453125 C 1.375 -1.929688 1.472656 -1.523438 1.671875 -1.234375 C 1.867188 -0.941406 2.144531 -0.796875 2.5 -0.796875 C 2.863281 -0.796875 3.140625 -0.9375 3.328125 -1.21875 C 3.515625 -1.5 3.613281 -1.90625 3.625 -2.4375 Z M 3.625 -2.6875 "/></g></g></g></svg>