<svg xmlns="http://www.w3.org/2000/svg" xmlns:xlink="http://www.w3.org/1999/xlink" width="90" zoomAndPan="magnify" viewBox="0 0 67.5 33.749999" height="45" preserveAspectRatio="xMidYMid meet" version="1.0"><defs><clipPath id="a339da404a"><path d="M 0 12 L 67.003906 12 L 67.003906 21 L 0 21 Z M 0 12 " clip-rule="nonzero"/></clipPath></defs><g clip-path="url(#a339da404a)"><path fill="#000000" d="M 66.363281 14.105469 L 66.363281 14.535156 L 66.148438 14.535156 L 66.148438 13.5 L 66.539062 13.5 C 66.824219 13.5 66.96875 13.574219 66.96875 13.820312 C 66.96875 14 66.859375 14.070312 66.71875 14.105469 L 66.96875 14.570312 L 66.71875 14.570312 L 66.46875 14.140625 L 66.363281 14.140625 M 66.363281 13.894531 L 66.539062 13.894531 C 66.648438 13.894531 66.683594 13.855469 66.683594 13.75 C 66.683594 13.644531 66.578125 13.644531 66.503906 13.644531 L 66.363281 13.644531 Z M 67.5 14 C 67.5 14.605469 67.039062 14.960938 66.539062 14.960938 C 66.042969 14.960938 65.582031 14.605469 65.582031 14 C 65.582031 13.394531 66.042969 13.039062 66.539062 13.039062 C 67.039062 13.039062 67.5 13.394531 67.5 14 M 67.25 14 C 67.25 13.535156 66.929688 13.214844 66.539062 13.214844 C 66.148438 13.214844 65.832031 13.535156 65.832031 14 C 65.832031 14.460938 66.148438 14.78125 66.539062 14.78125 C 66.929688 14.78125 67.25 14.460938 67.25 14 Z M 6.5 16.171875 L 8.808594 16.171875 C 9.238281 14.285156 11.402344 14.390625 11.402344 14.390625 C 13.605469 14.390625 15.242188 15.742188 15.242188 15.742188 C 15.3125 15.777344 15.3125 15.671875 15.3125 15.671875 C 14.246094 14.105469 11.226562 12.96875 7.671875 12.96875 C 4.085938 13.003906 1.066406 14.105469 0 15.671875 C 0 15.671875 0 15.742188 0.0703125 15.707031 C 0.0703125 15.707031 1.707031 14.390625 3.90625 14.355469 C 3.90625 14.390625 6.039062 14.285156 6.5 16.171875 M 6.5 17.59375 C 6.039062 19.480469 3.90625 19.371094 3.90625 19.371094 C 1.707031 19.371094 0.0703125 18.019531 0.0703125 18.019531 C 0 17.984375 0 18.089844 0 18.089844 C 1.066406 19.65625 4.085938 20.796875 7.636719 20.796875 C 11.191406 20.796875 14.210938 19.65625 15.277344 18.089844 C 15.277344 18.089844 15.277344 17.984375 15.207031 18.019531 C 15.207031 18.019531 13.570312 19.335938 11.367188 19.371094 C 11.367188 19.371094 9.203125 19.480469 8.773438 17.59375 L 6.5 17.59375 M 17.089844 13.003906 L 17.089844 14.640625 L 19.679688 14.640625 L 19.679688 20.796875 L 21.707031 20.796875 L 21.707031 14.605469 L 24.300781 14.605469 L 24.300781 13.003906 L 17.089844 13.003906 M 37.019531 20.761719 L 37.871094 20.761719 C 39.328125 20.652344 40.003906 20.050781 40.003906 20.050781 C 40.820312 19.480469 40.820312 18.234375 40.820312 18.234375 L 40.820312 13.003906 L 38.832031 13.003906 L 38.832031 17.949219 C 38.832031 17.949219 39.007812 19.335938 37.300781 19.335938 L 37.160156 19.335938 C 35.457031 19.335938 35.632812 17.949219 35.632812 17.949219 L 35.632812 13.003906 L 33.644531 13.003906 L 33.644531 18.304688 C 33.644531 18.304688 33.644531 19.515625 34.460938 20.121094 C 34.460938 20.121094 35.136719 20.6875 36.59375 20.832031 L 37.019531 20.832031 M 29.273438 14.605469 L 29.414062 14.605469 C 30.515625 14.605469 30.480469 15.351562 30.480469 15.351562 L 30.480469 15.566406 C 30.480469 16.492188 29.378906 16.492188 29.378906 16.492188 L 27.570312 16.492188 L 31.085938 20.761719 L 33.394531 20.761719 L 31.050781 17.984375 C 32.828125 17.378906 32.648438 15.492188 32.648438 15.492188 C 32.648438 13.003906 30.160156 12.96875 30.160156 12.96875 L 25.257812 12.96875 L 25.257812 20.761719 L 27.285156 20.761719 L 27.285156 14.605469 L 29.273438 14.605469 M 46.859375 18.128906 L 44.089844 18.128906 L 44.089844 20.761719 L 42.0625 20.761719 L 42.0625 13.003906 L 46.929688 13.003906 C 46.929688 13.003906 49.417969 13.003906 49.417969 15.53125 C 49.417969 15.53125 49.59375 17.414062 47.820312 18.019531 C 47.820312 17.984375 47.464844 18.128906 46.859375 18.128906 M 44.089844 16.527344 L 46.183594 16.527344 C 46.183594 16.527344 47.285156 16.527344 47.285156 15.601562 L 47.285156 15.386719 C 47.285156 15.386719 47.320312 14.640625 46.21875 14.640625 L 44.089844 14.640625 Z M 61.886719 14.605469 L 62.027344 14.605469 C 63.128906 14.605469 63.09375 15.351562 63.09375 15.351562 L 63.09375 15.566406 C 63.09375 16.492188 61.992188 16.492188 61.992188 16.492188 L 60.179688 16.492188 L 63.699219 20.761719 L 66.007812 20.761719 L 63.664062 17.984375 C 65.441406 17.378906 65.261719 15.492188 65.261719 15.492188 C 65.261719 13.003906 62.738281 12.96875 62.738281 12.96875 L 57.871094 12.96875 L 57.871094 20.761719 L 59.898438 20.761719 L 59.898438 14.605469 L 61.886719 14.605469 M 50.234375 13.003906 C 50.234375 15.601562 50.234375 18.199219 50.234375 20.796875 L 56.804688 20.796875 L 56.804688 19.160156 L 52.222656 19.160156 L 52.222656 17.699219 L 55.742188 17.699219 L 55.742188 16.097656 L 52.222656 16.097656 L 52.222656 14.640625 L 56.769531 14.640625 L 56.769531 13.003906 L 50.234375 13.003906 " fill-opacity="1" fill-rule="evenodd"/></g></svg>